<svg version="1.1" xmlns="http://www.w3.org/2000/svg" xmlns:xlink="http://www.w3.org/1999/xlink" width="62.9754" height="53.22543" viewBox="0,0,62.9754,53.22543"><g transform="translate(-194.59219,-135.49091)"><g data-paper-data="{&quot;isPaintingLayer&quot;:true}" fill-rule="evenodd" stroke-miterlimit="10" stroke-dasharray="" stroke-dashoffset="0" style="mix-blend-mode: normal"><g data-paper-data="{&quot;index&quot;:null}"><path d="M206.25,173.7c-3.1,7.8 -1.4,14.8 -5.7,14.4c-4.4,-0.4 -9.5,-12.1 0.1,-20.7c8.9,-7.9 18,-5 21.6,-2.9c3.5,2.2 0.8,3.4 0.2,4.2c-0.6,0.8 -11.8,-6.3 -16.2,5z" fill="#ffab19" stroke="#001026" stroke-width="1.2" stroke-linecap="round" stroke-linejoin="round"/><path d="M201.05,187.6c-2.5,0.4 -4.7,-3.2 -5.2,-6.7c-0.2,-3.6 0.4,-5.7 1.1,-7.4c0.1,0.7 1,3.1 3.9,3.6c2.4,0.4 4,-1.6 4,-1.6c0,0 -1,3 -1.5,7.4c-0.4,2.7 -0.3,4.3 -2.3,4.7z" fill="#ffffff" stroke="none" stroke-width="1" stroke-linecap="butt" stroke-linejoin="miter"/></g><path d="M227.35,167.5c-4.2,2.6 -6.8,-1.1 -8.8,-3.1c-2.8,-2.8 -4.1,-5.4 -5.3,-5.4c-4.1,0 -8.7,2 -12.1,0.8c-2.2,-0.8 -2.4,-11.1 -1.3,-13.5c1.4,-3 8.9,-3.2 8,6c0,0 8.5,-3.5 11.8,-1.4c4.8,3 6.8,6.5 7.5,7.4c1.9,2.7 3.8,6.9 0.2,9.2z" data-paper-data="{&quot;index&quot;:null}" fill="#ffab19" stroke="#001026" stroke-width="1.2" stroke-linecap="round" stroke-linejoin="round"/><path d="M239.25,179.3c-4,-6.6 -0.8,-17.3 6.2,-19.2c5.4,-1.5 11.9,-1.4 11.5,3.4c-0.4,4.9 -7.4,2.9 -9.7,4.1c-2.4,1.3 -2.6,9.7 -2.9,11.9c-0.3,2.3 -3.6,2.1 -5.1,-0.2z" data-paper-data="{&quot;index&quot;:null}" fill="#ffab19" stroke="#001026" stroke-width="1.2" stroke-linecap="round" stroke-linejoin="round"/><g data-paper-data="{&quot;index&quot;:null}"><path d="M236.45,163.2c1.2,0.9 3,3.3 4.6,5.7c1.3,1.9 2.7,5.6 2.7,5.6c0.9,2.5 1.5,7.3 -1.8,7.2c-2.2,-0.1 -4.2,0.2 -7.6,0.7c-6,1.2 -7.2,2.4 -9.6,-2.1c-4.5,-8.3 -10.5,-14.2 -2.3,-19c2,-1.2 5.2,-3.2 8,-5.2c2,-1.9 -1,-6 -3.1,-8.4c-0.9,-1.1 -0.9,-2.7 0.2,-3.8c7.3,-7.1 9.5,-9.6 12.3,-6.5c3.8,4.2 -2.2,8.3 -2.2,8.3c0,0 4.8,7.5 4.2,10.8c-0.7,3.2 -5.4,6.7 -5.4,6.7z" fill="#ffab19" stroke="#001026" stroke-width="1.2" stroke-linecap="round" stroke-linejoin="round"/><path d="M240.9784,169.8971c0,0 1.9,2.5 -2.4,5.2c-4.5,2.9 -6.2,-0.3 -8,-2.7c-2,-3.1 0,-4.6 2,-6.4c1.6,-1.5 3.1,-2.7 3.1,-2.7c0,0 3.1,2.1 5.3,6.6z" fill="#ffffff" stroke="none" stroke-width="1" stroke-linecap="butt" stroke-linejoin="miter"/></g><path d="M231.4963,183.0435c-6.5871,1.7482 -16.4463,4.5565 -19.3463,1.0565c-1.3,-1.5 -5.2,-9.8 -4.9,-14.1c0.4,-4.6 7.2,-5.9 8.7,-1.5c1.1,3.1 2.9,8.3 3.2,8.4c1.1,0.2 5.2,-1.6 7.4,-0.6" data-paper-data="{&quot;index&quot;:null}" fill="#ffab19" stroke="#001026" stroke-width="1.2" stroke-linecap="round" stroke-linejoin="round"/></g></g></svg>