<svg version="1.1" xmlns="http://www.w3.org/2000/svg" xmlns:xlink="http://www.w3.org/1999/xlink" width="28.88601" height="17.72886" viewBox="0,0,28.88601,17.72886"><g transform="translate(-225.55699,-168.38557)"><g data-paper-data="{&quot;isPaintingLayer&quot;:true}" fill-rule="evenodd" stroke="none" stroke-width="1" stroke-linecap="butt" stroke-linejoin="miter" stroke-miterlimit="10" stroke-dasharray="" stroke-dashoffset="0" style="mix-blend-mode: normal"><path d="M227.68806,186.11368c-3.3996,0 -1.34165,-14.1504 7.32875,-13.94045c8.8317,0.21407 12.03819,13.94045 12.03819,13.94045z" fill="#efab00"/><path d="M253.45911,180.43391c0,0 -17.64543,4.69859 -20.81263,5.16526c-4.24127,0.62498 -5.64691,-0.73875 -6.15887,-2.94714c-0.84691,-3.65296 2.10473,-3.77346 3.00927,-5.76929c0.90416,-1.9962 -1.22302,-5.24348 3.00927,-5.41114c3.53994,-0.14034 3.59383,-2.86032 5.33405,-3.06016c2.69902,-0.30987 3.28845,2.25255 5.2854,2.9666c1.88617,0.67438 2.87866,-1.05124 4.98975,-0.20284c1.8087,0.72715 1.89029,4.59193 4.2727,5.39542c3.88274,1.30984 1.07108,3.86328 1.07108,3.86328" fill="#59c059"/><path d="M230.53139,179.31448c-0.38509,-0.11676 -0.60515,-0.52805 -0.48801,-0.91315l0.23465,-0.77393c0.11676,-0.38509 0.52768,-0.60477 0.91315,-0.48801l2.06057,0.62461c0.38547,0.11714 0.60515,0.52805 0.48801,0.91352l-0.23465,0.77355c-0.11676,0.38547 -0.52768,0.60477 -0.91315,0.48801l-2.06057,-0.62461" fill="#e8511c"/><path d="M229.15067,178.76809c0.42663,0.10853 1.03665,0.57259 1.53439,0.69609c-1.28739,3.33448 -1.51942,6.53049 -3.11368,6.64277h-0.00748c-1.22377,-0.10104 -2.54483,-1.24622 -1.78138,-2.42508c0.45283,-0.69983 -0.25074,-1.56807 -0.05988,-2.37268c0.2732,-1.16014 1.45954,-1.41089 1.8712,-1.5269c0.44909,-0.1235 0.92437,-1.17511 1.55684,-1.01419" fill="#c18500"/><path d="M232.35783,177.49552c-0.37798,0.68486 -0.6886,1.38843 -0.95057,2.08452l-0.35179,-0.10853l-0.33682,-0.10067c0.2732,-0.69646 0.59504,-1.39629 0.98425,-2.07329z" fill="#c6431a"/><path d="M231.40726,179.58019c-1.23874,3.26338 -1.48948,6.36208 -3.0276,6.52301c-0.17964,0 -0.26945,0 -0.56885,0.01123h-0.07485c-0.05614,0 -0.10853,-0.00374 -0.16467,-0.00748c1.59426,-0.11227 1.82629,-3.30828 3.11368,-6.64277c0.13473,0.03368 0.25823,0.04117 0.3705,0.00748z" fill="#a06b00"/><path d="M232.08483,175.03302c-0.36301,0.17402 -0.80275,0.01909 -0.97639,-0.3443l-0.06736,-0.13997c-0.17365,-0.36339 -0.01871,-0.80237 0.3443,-0.97639l1.00484,-0.4809c0.36339,-0.17402 0.80275,-0.01909 0.97639,0.34393l0.06736,0.14034c0.17365,0.36301 0.01871,0.80275 -0.3443,0.97639l-1.00484,0.4809" fill="#e8511c"/><path d="M242.28269,171.94573c-0.2732,0.00374 -0.55388,0.01871 -0.84204,0.04117c-5.0223,0.38547 -7.58585,2.79183 -9.08281,5.50882l-0.65492,-0.19835c1.51193,-2.63839 4.07173,-4.93249 8.97054,-5.31047c0.56136,-0.04491 1.09652,-0.05614 1.60923,-0.04117" fill="#4ba04b"/><path d="M250.9505,177.5953c-0.20134,-0.34879 -0.08084,-0.799 0.26833,-1.00034l0.35628,-0.20583c0.34879,-0.20134 0.799,-0.08046 1.00034,0.26796l0.76083,1.31807c0.20134,0.34879 0.08084,0.79863 -0.26833,1.00034l-0.35628,0.20546c-0.34879,0.20134 -0.799,0.08084 -1.00034,-0.26796l-0.76083,-1.3177" fill="#e8511c"/><path d="M242.31925,172.54489c-0.37985,0.13398 -0.80013,-0.06661 -0.9341,-0.44647l-0.13697,-0.38809c-0.13435,-0.37985 0.06624,-0.80013 0.44609,-0.93448l1.43484,-0.5071c0.37985,-0.13398 0.80013,0.06699 0.9341,0.44647l0.13735,0.38809c0.13435,0.37985 -0.06661,0.8005 -0.44647,0.93448l-1.43484,0.5071" fill="#e8511c"/><path d="M228.24935,186.11368c3.36816,0 0.83194,-13.17887 13.19197,-14.12757c9.83953,-0.75522 12.27508,7.59259 12.78667,11.97644c0.1336,1.14405 -0.74848,2.15113 -1.89964,2.15113z" fill="#ffbf00"/><path d="M237.22606,171.60947c-0.10853,0 -0.21631,-0.04715 -0.29041,-0.13809c-0.13061,-0.16017 -0.10628,-0.39595 0.05389,-0.52618l1.96476,-1.60025c0.16055,-0.12986 0.39632,-0.10628 0.52656,0.05389c0.13061,0.16017 0.10628,0.39595 -0.05389,0.52656l-1.96476,1.59988c-0.06961,0.05651 -0.15306,0.0842 -0.23615,0.0842" fill="#ffbf00"/><path d="M249.98421,172.78081c-0.0232,0 -0.04641,-0.00187 -0.06998,-0.00674l-2.48982,-0.47117c-0.20321,-0.03817 -0.33644,-0.23427 -0.29827,-0.43711c0.03855,-0.20321 0.23465,-0.33869 0.43711,-0.29827l2.49019,0.47154c0.20321,0.03817 0.33644,0.23427 0.2979,0.43711c-0.03368,0.17964 -0.19086,0.30463 -0.36713,0.30463" fill="#ffbf00"/><path d="M228.71558,180.46351c-0.08308,0 -0.16691,-0.02732 -0.23652,-0.08458l-1.96364,-1.60175c-0.16017,-0.13024 -0.18413,-0.36601 -0.05314,-0.52618c0.13061,-0.1598 0.36601,-0.1845 0.52656,-0.05352l1.96364,1.60212c0.16017,0.13024 0.18413,0.36601 0.05314,0.52618c-0.07373,0.09057 -0.18151,0.13772 -0.29004,0.13772" fill="#ffbf00"/><path d="M249.82999,179.39453c-0.61039,0 -0.61151,-0.9487 0,-0.9487c0.61076,0 0.61151,0.9487 0,0.9487" fill="#efab00"/><path d="M244.97145,180.24312c-0.61039,0 -0.61151,-0.9487 0,-0.9487c0.61076,0 0.61151,0.9487 0,0.9487" fill="#efab00"/><path d="M244.38412,184.14925c-0.61039,0 -0.61151,-0.9487 0,-0.9487c0.61076,0 0.61188,0.9487 0,0.9487" fill="#efab00"/><path d="M236.34858,184.62364c-0.61039,0 -0.61151,-0.9487 0,-0.9487c0.61039,0 0.61151,0.9487 0,0.9487" fill="#efab00"/><path d="M237.28875,176.37501c-0.61039,0 -0.61151,-0.9487 0,-0.9487c0.61039,0 0.61151,0.9487 0,0.9487" fill="#efab00"/><path d="M242.31813,174.22534c-0.61039,0 -0.61151,-0.94907 0,-0.94907c0.61039,0 0.61151,0.94907 0,0.94907" fill="#efab00"/><path d="M239.85267,180.81766c-0.61039,0 -0.61151,-0.9487 0,-0.9487c0.61039,0 0.61151,0.9487 0,0.9487" fill="#efab00"/><path d="M234.60107,181.1919c-0.61039,0 -0.61151,-0.9487 0,-0.9487c0.61039,0 0.61151,0.9487 0,0.9487" fill="#efab00"/><path d="M250.75646,183.24767c-0.61039,0 -0.61151,-0.9487 0,-0.9487c0.61039,0 0.61151,0.9487 0,0.9487" fill="#efab00"/><path d="M247.055,175.90062c-0.61076,0 -0.61188,-0.9487 0,-0.9487c0.61039,0 0.61151,0.9487 0,0.9487" fill="#efab00"/><path d="M230.7187,179.37077l0.33682,0.10104c-0.11227,0.03331 -0.23577,0.0262 -0.3705,-0.00748c0.01123,-0.02994 0.02245,-0.05988 0.03368,-0.09356" fill="#4ba04b"/></g></g></svg>