<svg version="1.1" xmlns="http://www.w3.org/2000/svg" xmlns:xlink="http://www.w3.org/1999/xlink" width="486.54545" height="362.5" viewBox="0,0,486.54545,362.5"><defs><linearGradient x1="223.71" y1="357.04" x2="256.24" y2="138.44" gradientUnits="userSpaceOnUse" id="color-1"><stop offset="0" stop-color="#89b533"/><stop offset="1" stop-color="#506623"/></linearGradient></defs><g transform="translate(3.61364,2.75)"><g data-paper-data="{&quot;isPaintingLayer&quot;:true}" stroke-miterlimit="10" stroke-dasharray="" stroke-dashoffset="0" style="mix-blend-mode: normal"><path d="M480.25,359.75h-481v-221l481,80z" fill="url(#color-1)" fill-rule="nonzero" stroke="none" stroke-width="1" stroke-linecap="butt" stroke-linejoin="miter"/><path d="M56.62,213.75h-8v43.7c0,2.92 -1.51,4.43 -4.43,4.43h-13.23c-2.92,0 -4.42,-1.51 -4.42,-4.43v-43.7h-8c-2.92,0 -4.43,-1.5 -4.43,-4.42v-8c0,-2.92 1.51,-4.42 4.43,-4.42h38c2.92,0 4.42,1.5 4.42,4.42v8c0.08,2.87 -1.42,4.42 -4.34,4.42z" fill="#000000" fill-rule="nonzero" stroke="#000000" stroke-width="8" stroke-linecap="butt" stroke-linejoin="miter"/><path d="M108.55,261.83h-11.41c-1.77262,0.02783 -3.38396,-1.02528 -4.07,-2.66l-0.62,-1.5h-17.2l-0.53,1.41c-0.63097,1.69115 -2.26555,2.7956 -4.07,2.75h-11.46c-3.1,0 -4.69,-1.33 -4.69,-3.54c0.00967,-0.92134 0.2213,-1.82934 0.62,-2.66l24.68,-56.71c1,-2.3 2.21,-3.45 4.07,-3.45c1.86,0 3.1,1.15 4.07,3.45l24.68,56.71c0.39418,0.83224 0.60559,1.73924 0.62,2.66c0.01,2.21 -1.59,3.54 -4.69,3.54zM83.87,237.06l-4.42,10.52h8.8z" fill="#000000" fill-rule="nonzero" stroke="#000000" stroke-width="8" stroke-linecap="butt" stroke-linejoin="miter"/><path d="M164.73,205.21l-5.57,10.79c-0.89,1.68 -1.95,2.57 -3.37,2.57c-2.3,0 -3.8,-2.13 -8.31,-2.13c-6.46,0 -11.77,5.84 -11.77,12.92c0,7.08 5.31,12.92 11.77,12.92c5.75,0 6.72,-2.13 9.46,-2.13c1.6,0 2.75,1.15 3.46,3.19l3.62,10.79c0.28703,0.76812 0.46542,1.57255 0.53,2.39c-0.05583,1.61817 -1.11311,3.03054 -2.65,3.54c-4.52052,2.0892 -9.44006,3.17409 -14.42,3.18c-21.59,0 -33.89,-15.3 -33.89,-33.88c0.09841,-18.67601 15.21399,-33.79159 33.89,-33.89c5.39461,-0.02073 10.71126,1.28782 15.48,3.81c1.59,0.88 2.48,2 2.48,3.36c-0.05152,0.89736 -0.29355,1.77346 -0.71,2.57z" fill="#000000" fill-rule="nonzero" stroke="#000000" stroke-width="8" stroke-linecap="butt" stroke-linejoin="miter"/><path d="M203.48,263.24c-13.70904,0.00404 -26.07027,-8.25151 -31.31836,-20.91624c-5.24809,-12.66473 -2.34924,-27.24385 7.34452,-36.93761c9.69376,-9.69376 24.27288,-12.59261 36.93761,-7.34452c12.66473,5.24809 20.92028,17.60932 20.91624,31.31836c-0.02754,18.69999 -15.18001,33.85246 -33.88,33.88zM203.48,216.44c-6.46,0 -11.77,5.84 -11.77,12.92c0,7.08 5.31,12.92 11.77,12.92c6.46,0 11.77,-5.84 11.77,-12.92c0,-7.08 -5.31,-12.92 -11.77,-12.92z" fill="#000000" fill-rule="nonzero" stroke="#000000" stroke-width="8" stroke-linecap="butt" stroke-linejoin="miter"/><path d="M49.37,340.85h-25.93c-2.92,0 -4.42,-1.5 -4.42,-4.42v-56.09c0,-2.92 1.5,-4.43 4.42,-4.43h17.81c16.54,0 30,6.55 30,21.94c0,5.49 -1.42,8.32 -6,13.45c4.34,4.07 6,7.34 6,12.3c0,13.09 -13,17.25 -21.88,17.25zM41.37,290.16v15.12c3.72,0 8.76,-2.21 8.76,-7.69c0,-5.48 -4.57,-7.43 -8.73,-7.43zM41.37,315.28v12.21c3.1,0 7.35,-1.24 7.35,-6.28c0.03,-4.69 -4.4,-5.84 -7.32,-5.93z" fill="#000000" fill-rule="nonzero" stroke="#000000" stroke-width="8" stroke-linecap="butt" stroke-linejoin="miter"/><path d="M107.05,342.27c-19.91,0 -28.8,-10.52 -28.8,-25.31v-36.62c0,-2.92 1.51,-4.43 4.43,-4.43h13.31c2.92,0 4.42,1.51 4.42,4.43v31.76c0,6.72 1.77,9.91 6.64,9.91c4.87,0 6.63,-3.19 6.63,-9.91v-31.76c0,-2.92 1.51,-4.43 4.43,-4.43h13.27c2.92,0 4.42,1.51 4.42,4.43v36.62c0,14.69 -8.85,25.31 -28.75,25.31z" fill="#000000" fill-rule="nonzero" stroke="#000000" stroke-width="8" stroke-linecap="butt" stroke-linejoin="miter"/><path d="M195.34,340.85h-15.75c-1.53582,-0.0475 -2.95287,-0.83806 -3.8,-2.12l-4,-6.55l-3.28,0.8v3.45c0,2.92 -1.5,4.42 -4.42,4.42h-14.13c-2.92,0 -4.43,-1.5 -4.43,-4.42v-56.09c0,-2.92 1.51,-4.43 4.43,-4.43h17.78c21.85,0 30.08,17 30.08,28.49c-0.13823,6.10422 -2.18,12.01277 -5.84,16.9l7.27,12.91c0.57455,0.93937 0.91732,2.00197 1,3.1c0,2.21 -1.81,3.54 -4.91,3.54zM167.74,296.53v18.22c2.34966,-0.01042 4.59757,-0.96009 6.24301,-2.63746c1.64544,-1.67737 2.55172,-3.94312 2.51699,-6.29254c0,-6.37 -4.6,-9.29 -8.76,-9.29z" fill="#000000" fill-rule="nonzero" stroke="#000000" stroke-width="8" stroke-linecap="butt" stroke-linejoin="miter"/><path d="M230.25,333.06v3.37c0,2.92 -1.51,4.42 -4.43,4.42h-14.11c-2.92,0 -4.43,-1.5 -4.43,-4.42v-56.09c0,-2.92 1.51,-4.43 4.43,-4.43h17.78c21.85,0 30,17.17 30,28.49c-0.01,19.64 -17.79,28.13 -29.24,28.66zM229.45,296.53v18.22c4,0 8.76,-3.36 8.76,-8.32c0.04,-7.25 -4.56,-9.9 -8.72,-9.9z" fill="#000000" fill-rule="nonzero" stroke="#000000" stroke-width="8" stroke-linecap="butt" stroke-linejoin="miter"/><path d="M-3.61364,139.15909v-141.90909h486.54545v223" fill="#6ec5ff" fill-rule="nonzero" stroke="none" stroke-width="1" stroke-linecap="butt" stroke-linejoin="miter"/><path d="M56.62,213.75h-8v43.7c0,2.92 -1.51,4.43 -4.43,4.43h-13.23c-2.92,0 -4.42,-1.51 -4.42,-4.43v-43.7h-8c-2.92,0 -4.43,-1.5 -4.43,-4.42v-8c0,-2.92 1.51,-4.42 4.43,-4.42h38c2.92,0 4.42,1.5 4.42,4.42v8c0.08,2.87 -1.42,4.42 -4.34,4.42z" fill="#ffffff" fill-rule="nonzero" stroke="none" stroke-width="1" stroke-linecap="butt" stroke-linejoin="miter"/><path d="M108.55,261.83h-11.41c-1.77262,0.02783 -3.38396,-1.02528 -4.07,-2.66l-0.62,-1.5h-17.2l-0.53,1.41c-0.63097,1.69115 -2.26555,2.7956 -4.07,2.75h-11.46c-3.1,0 -4.69,-1.33 -4.69,-3.54c0.00967,-0.92134 0.2213,-1.82934 0.62,-2.66l24.68,-56.71c1,-2.3 2.21,-3.45 4.07,-3.45c1.86,0 3.1,1.15 4.07,3.45l24.68,56.71c0.39418,0.83224 0.60559,1.73924 0.62,2.66c0.01,2.21 -1.59,3.54 -4.69,3.54zM83.87,237.06l-4.42,10.52h8.8z" fill="#ffffff" fill-rule="nonzero" stroke="none" stroke-width="1" stroke-linecap="butt" stroke-linejoin="miter"/><path d="M164.73,205.21l-5.57,10.79c-0.89,1.68 -1.95,2.57 -3.37,2.57c-2.3,0 -3.8,-2.13 -8.31,-2.13c-6.46,0 -11.77,5.84 -11.77,12.92c0,7.08 5.31,12.92 11.77,12.92c5.75,0 6.72,-2.13 9.46,-2.13c1.6,0 2.75,1.15 3.46,3.19l3.62,10.79c0.28703,0.76812 0.46542,1.57255 0.53,2.39c-0.05583,1.61817 -1.11311,3.03054 -2.65,3.54c-4.52052,2.0892 -9.44006,3.17409 -14.42,3.18c-21.59,0 -33.89,-15.3 -33.89,-33.88c0.09841,-18.67601 15.21399,-33.79159 33.89,-33.89c5.39461,-0.02073 10.71126,1.28782 15.48,3.81c1.59,0.88 2.48,2 2.48,3.36c-0.05152,0.89736 -0.29355,1.77346 -0.71,2.57z" fill="#ffffff" fill-rule="nonzero" stroke="none" stroke-width="1" stroke-linecap="butt" stroke-linejoin="miter"/><path d="M203.48,263.24c-13.70904,0.00404 -26.07027,-8.25151 -31.31836,-20.91624c-5.24809,-12.66473 -2.34924,-27.24385 7.34452,-36.93761c9.69376,-9.69376 24.27288,-12.59261 36.93761,-7.34452c12.66473,5.24809 20.92028,17.60932 20.91624,31.31836c-0.02754,18.69999 -15.18001,33.85246 -33.88,33.88zM203.48,216.44c-6.46,0 -11.77,5.84 -11.77,12.92c0,7.08 5.31,12.92 11.77,12.92c6.46,0 11.77,-5.84 11.77,-12.92c0,-7.08 -5.31,-12.92 -11.77,-12.92z" fill="#ffffff" fill-rule="nonzero" stroke="none" stroke-width="1" stroke-linecap="butt" stroke-linejoin="miter"/><path d="M49.37,340.85h-25.93c-2.92,0 -4.42,-1.5 -4.42,-4.42v-56.09c0,-2.92 1.5,-4.43 4.42,-4.43h17.81c16.54,0 30,6.55 30,21.94c0,5.49 -1.42,8.32 -6,13.45c4.34,4.07 6,7.34 6,12.3c0,13.09 -13,17.25 -21.88,17.25zM41.37,290.16v15.12c3.72,0 8.76,-2.21 8.76,-7.69c0,-5.48 -4.57,-7.43 -8.73,-7.43zM41.37,315.28v12.21c3.1,0 7.35,-1.24 7.35,-6.28c0.03,-4.69 -4.4,-5.84 -7.32,-5.93z" fill="#ffffff" fill-rule="nonzero" stroke="none" stroke-width="1" stroke-linecap="butt" stroke-linejoin="miter"/><path d="M107.05,342.27c-19.91,0 -28.8,-10.52 -28.8,-25.31v-36.62c0,-2.92 1.51,-4.43 4.43,-4.43h13.31c2.92,0 4.42,1.51 4.42,4.43v31.76c0,6.72 1.77,9.91 6.64,9.91c4.87,0 6.63,-3.19 6.63,-9.91v-31.76c0,-2.92 1.51,-4.43 4.43,-4.43h13.27c2.92,0 4.42,1.51 4.42,4.43v36.62c0,14.69 -8.85,25.31 -28.75,25.31z" fill="#ffffff" fill-rule="nonzero" stroke="none" stroke-width="1" stroke-linecap="butt" stroke-linejoin="miter"/><path d="M195.34,340.85h-15.75c-1.53582,-0.0475 -2.95287,-0.83806 -3.8,-2.12l-4,-6.55l-3.28,0.8v3.45c0,2.92 -1.5,4.42 -4.42,4.42h-14.13c-2.92,0 -4.43,-1.5 -4.43,-4.42v-56.09c0,-2.92 1.51,-4.43 4.43,-4.43h17.78c21.85,0 30.08,17 30.08,28.49c-0.13823,6.10422 -2.18,12.01277 -5.84,16.9l7.27,12.91c0.57455,0.93937 0.91732,2.00197 1,3.1c0,2.21 -1.81,3.54 -4.91,3.54zM167.74,296.53v18.22c2.34966,-0.01042 4.59757,-0.96009 6.24301,-2.63746c1.64544,-1.67737 2.55172,-3.94312 2.51699,-6.29254c0,-6.37 -4.6,-9.29 -8.76,-9.29z" fill="#ffffff" fill-rule="nonzero" stroke="none" stroke-width="1" stroke-linecap="butt" stroke-linejoin="miter"/><path d="M230.25,333.06v3.37c0,2.92 -1.51,4.42 -4.43,4.42h-14.11c-2.92,0 -4.43,-1.5 -4.43,-4.42v-56.09c0,-2.92 1.51,-4.43 4.43,-4.43h17.78c21.85,0 30,17.17 30,28.49c-0.01,19.64 -17.79,28.13 -29.24,28.66zM229.45,296.53v18.22c4,0 8.76,-3.36 8.76,-8.32c0.04,-7.25 -4.56,-9.9 -8.72,-9.9z" fill="#ffffff" fill-rule="nonzero" stroke="none" stroke-width="1" stroke-linecap="butt" stroke-linejoin="miter"/><path d="M45.02,155.09c1.51449,-4.3045 5.24118,-7.45138 9.73856,-8.2234c4.49738,-0.77202 9.06018,0.95188 11.9235,4.50488c2.86331,3.553 3.57813,8.37795 1.86794,12.60851c-2.45,6.5 -18.93,14.54 -18.93,14.54c0,0 -7.06,-16.93 -4.6,-23.43z" fill="#ff5600" fill-rule="nonzero" stroke="none" stroke-width="1" stroke-linecap="butt" stroke-linejoin="miter"/><path d="M51.18,153.55c1.46587,-3.75788 5.68338,-5.63573 9.45695,-4.21071c3.77357,1.42502 5.69705,5.62191 4.31305,9.41071c-1.44,3.8 -11.08,8.5 -11.08,8.5c0,0 -4.13,-9.9 -2.69,-13.7z" fill="#faff00" fill-rule="nonzero" stroke="none" stroke-width="1" stroke-linecap="butt" stroke-linejoin="miter"/><path d="M34.01,151.85c2.6703,-7.06924 10.56576,-10.6353 17.635,-7.965c7.06924,2.6703 10.6353,10.56576 7.965,17.635c-2.67,7.07 -20.6,15.81 -20.6,15.81c0,0 -7.67,-18.41 -5,-25.48z" fill="#ff5600" fill-rule="nonzero" stroke="none" stroke-width="1" stroke-linecap="butt" stroke-linejoin="miter"/><path d="M40.71,150.17c1.56297,-4.14214 6.18786,-6.23297 10.33,-4.67c4.14214,1.56297 6.23297,6.18786 4.67,10.33c-1.57,4.13 -12,9.25 -12,9.25c0,0 -4.49,-10.77 -2.93,-14.91z" fill="#faff00" fill-rule="nonzero" stroke="none" stroke-width="1" stroke-linecap="butt" stroke-linejoin="miter"/><path d="M102.95,121.87c-0.07,3.16 -1.64,15 1.44,17.34c3,2.19 13.22,0.93 12.7,7.89c-0.52,6.96 -9.64,5.53 -16.88,2.23c-9.4,-4.21 -11.53,-19.93 -4.46,-28.3c2.61,-2.9 7.28,-2.45 7.2,0.84z" fill="#ffab19" fill-rule="evenodd" stroke="#001026" stroke-width="1.7" stroke-linecap="round" stroke-linejoin="round"/><path d="M82.25,114.75c-0.54688,-2.10148 -1.44996,-4.09367 -2.67,-5.89c0,0 20.23,5.39 23.73,9.54c2,3.23 2.78,7.11 -0.14,11.28c-2.53,3.61 -6.61,6.23 -17.72,5c1.45,-2.41 2.5,-3.24 3.83,-5.16c7.27,-0.27 7.5,-2.15 8.7,-4.46c1.06,-2 1.82,-3.91 -1.46,-7.65z" fill="#b5b5b5" fill-rule="nonzero" stroke="#000000" stroke-width="1.7" stroke-linecap="butt" stroke-linejoin="miter"/><path d="M69.84,132.19c0.66,1.26 4.19,3.54 -1.21,5.85c-5.51,2.15 -18.92,4.21 -29.66,-8.84c-11.57,-14.18 -1.84,-29.47 4.43,-29.06c6.27,0.41 2.19,9.83 4.81,21.46c3.68,16.83 21,9.34 21.63,10.59z" fill="#ffab19" fill-rule="evenodd" stroke="#001026" stroke-width="1.7" stroke-linecap="round" stroke-linejoin="round"/><path d="M46.18,108.05c-0.17951,3.57351 -0.02215,7.15599 0.47,10.7c-1.12165,-1.85523 -3.09441,-3.02913 -5.26,-3.13c-2.75475,-0.03222 -5.24586,1.6325 -6.27,4.19c-0.80431,-3.49633 -0.75973,-7.13443 0.13,-10.61c1.48,-4.8 5.36,-9.36 8.78,-8.25c2.67,1 2.22,3.23 2.15,7.1z" fill="#ffffff" fill-rule="evenodd" stroke="none" stroke-width="1" stroke-linecap="butt" stroke-linejoin="miter"/><path d="M51.17,137.5l15.08,-32.29c1.61,-3.44 4.54,-4.55 8,-3l11.92,5.38c4.36,2 5.5,5.68 4.37,8.11l-15.29,32.67z" fill="#b5b5b5" fill-rule="nonzero" stroke="#000000" stroke-width="1.7" stroke-linecap="butt" stroke-linejoin="miter"/><path d="M47.91,145.04c0,0 3.41,-3.48 7.53,-7.37c5,2.06 10.09,4.47 17.09,7.44c-0.11,5.74 -0.4,10.52 -0.4,10.52z" fill="#b5b5b5" fill-rule="nonzero" stroke="#000000" stroke-width="1.7" stroke-linecap="butt" stroke-linejoin="miter"/><path d="M91.36,138.94c0.83,1.38 12.15,7.19 13.49,11.6c0.75,4.82 -7.46,13.83 -7.46,13.83c12.65,3.53 8.54,13.35 3.84,13.67c-3.74,0.22 -19.18,-6.92 -19.12,-10.25c0.16,-5.12 4.71,-7.23 6.81,-12.66c0.62,-1.59 -0.77,-0.68 -5.78,-3.95c-4.07,-2.77 -8.6,-8.4 -3,-12.63c4.89,-3.59 8.62,-3.52 11.22,0.39z" fill="#ffab19" fill-rule="evenodd" stroke="#001026" stroke-width="1.7" stroke-linecap="round" stroke-linejoin="round"/><path d="M41.51,134.83l15.11,-32.3c1.61,-3.43 4.54,-4.55 8,-3l11.92,5.38c4.36,2 5.5,5.68 4.37,8.1l-15.3,32.74z" fill="#b5b5b5" fill-rule="nonzero" stroke="#000000" stroke-width="1.7" stroke-linecap="butt" stroke-linejoin="miter"/><path d="M38.25,142.37c0,0 3.41,-3.48 7.53,-7.37c5,2.06 10.09,4.47 17.09,7.44c-0.11,5.74 -0.4,10.51 -0.4,10.51z" fill="#b5b5b5" fill-rule="nonzero" stroke="#000000" stroke-width="1.7" stroke-linecap="butt" stroke-linejoin="miter"/><path d="M94.36,153.59c0.12,4.76 -8.27,14.22 -8.27,14.22c0,0 7.51,7.08 1.25,12.13c-4.61,3.74 -7.15,-0.26 -15.82,-11.83c-1.23792,-1.66688 -0.99468,-4.0038 0.56,-5.38c3.47,-2.9 8.59,-8 6.2,-11.1c-3.49,-3.42 -7.53,-6.88 -10.03,-9.06c-10.44,-8.54 -0.72,-15.49 7.43,-26.15c4.36,-5.78 5.77,-3.83 13.93,-0.82c4.66,1.45 7.4,2.31 10.51,2.66c4.65,0.58 2.75,7.19 0.93,10.5c-1.44621,2.56465 -3.11959,4.99439 -5,7.26c-2.78,3 -5.83,6 -7.71,7c0,0 5.82,5.95 6.09,10.59z" fill="#ffab19" fill-rule="evenodd" stroke="#001026" stroke-width="1.7" stroke-linecap="round" stroke-linejoin="round"/><path d="M87.25,142.69c0,0 -1.84,-2 -3.75,-4.47c-2.41,-3 -4.88,-5.51 -1.39,-9.42c3,-3 6.14,-7.09 11.82,-2c5.43,4.73 2.22,7.82 2.22,7.82c-2.27592,3.37055 -5.32822,6.14506 -8.9,8.09z" fill="#ffffff" fill-rule="evenodd" stroke="none" stroke-width="1" stroke-linecap="butt" stroke-linejoin="miter"/><path d="M78.98,120c-0.94,3.3 -6.66,6.09 -7.45,7.46c-0.17,0.42 3.81,7.15 6.16,11.18c3.38,5.67 -4.27,11.84 -9.62,8.05c-4.93,-3.63 -10.34,-15.48 -10.77,-18.26c-1.13,-6.36 11,-14.46 18.92,-20" fill="#ffab19" fill-rule="evenodd" stroke="#001026" stroke-width="1.7" stroke-linecap="round" stroke-linejoin="round"/><path d="M73.14,110.56c-2,-4 5,-2.8 5,-2.8c0,0 4.46,1.32 6.37,3.63c3.18351,2.88859 4.27104,7.43321 2.74,11.45c-2.53,3.61 -3.75,6.39 -14.09,5.73c-0.62,-2 -0.45,-1 -0.49,-2.38c6.34,-4.45 5,-3.84 6.22,-6.15c0.99167,-2.46296 0.45208,-5.27825 -1.38,-7.2z" fill="#b5b5b5" fill-rule="nonzero" stroke="#000000" stroke-width="1.7" stroke-linecap="butt" stroke-linejoin="miter"/><path d="M95.68,19.82c0.16083,-0.21015 0.41037,-0.3334 0.675,-0.3334c0.26463,0 0.51417,0.12325 0.675,0.3334l8.31,13.25c0,0 10.73,3.47 14.77,7.06c6.78,6 8.93,12 8.93,12c0,0 9.26,0.55 14.69,6.79c25.82,29.67 17.87,60.45 -5.8,73.87c-23.67,13.42 -61.09,-23.47 -75.77,-35.64c-14.68,-12.17 -5.7,-35.53 -6.15,-34.18l-10.86,-23.22c-0.31,-0.49 0.23,-1.12 0.86,-1l19.84,5.23c3.52133,-2.75454 7.40854,-5.00609 11.55,-6.69c3.29417,-1.37144 6.74805,-2.32227 10.28,-2.83z" fill="#ffab19" fill-rule="evenodd" stroke="#001026" stroke-width="1.7" stroke-linecap="butt" stroke-linejoin="miter"/><path d="M128.82,52.8c0,0 9.57,1.65 15.37,7.56c19.72,20.09 19,56.8 -4.49,70c-30.36,17.6 -70,-31.36 -65.77,-48.65c4.23,-17.29 23.15,-12.28 34.2,-16.86c9.48,-3.9 8.38,-10.79 20.69,-12z" fill="#ffffff" fill-rule="evenodd" stroke="none" stroke-width="1" stroke-linecap="butt" stroke-linejoin="miter"/><path d="M154.1,46.02c-4.62,7.23 -14.28,10.6 -14.28,10.6" fill="none" fill-rule="nonzero" stroke="#001026" stroke-width="1.7" stroke-linecap="round" stroke-linejoin="round"/><path d="M157.38,61.75c-8.27,3.5 -14.37,2.69 -14.37,2.69" fill="none" fill-rule="nonzero" stroke="#001026" stroke-width="1.7" stroke-linecap="round" stroke-linejoin="round"/><path d="M105.45,60.75c2.83,-0.94 5.88,-1.66 6.33,-0.76c0.76,1.84 0,6.29 -2.11,7.14c-2.34,1.07 -9.12,-0.41 -9.84,-2.57c-0.67,-1.56 2.92,-2.9 5.62,-3.81z" fill="#001026" fill-rule="evenodd" stroke="#001026" stroke-width="1.7" stroke-linecap="round" stroke-linejoin="round"/><path d="M45.77,81.65c0,0 12.84,-0.09 18.95,2.52" fill="none" fill-rule="nonzero" stroke="#001026" stroke-width="1.7" stroke-linecap="round" stroke-linejoin="round"/><path d="M66.69,88.75c-5.03,4.22 -15.44,6.06 -15.44,6.06" fill="none" fill-rule="nonzero" stroke="#001026" stroke-width="1.7" stroke-linecap="round" stroke-linejoin="round"/><path d="M117.73,42.42c5.92,4.76 8.35,11.59 5.38,15.27c-2.97,3.68 -10.1,2.92 -16.16,-1.8c-6.06,-4.72 -8.35,-11.59 -5.39,-15.27c2.96,-3.68 10.24,-3 16.17,1.8z" fill="#ffffff" fill-rule="evenodd" stroke="#001026" stroke-width="1.7" stroke-linecap="round" stroke-linejoin="round"/><path d="M119.75,50.28c0.29381,1.35111 -0.53402,2.69251 -1.87343,3.03569c-1.33942,0.34318 -2.71029,-0.43488 -3.10238,-1.76081c-0.39209,-1.32593 0.33516,-2.72442 1.64581,-3.16489c1.44128,-0.39616 2.93117,0.44946 3.33,1.89" fill="#001026" fill-rule="evenodd" stroke="none" stroke-width="1" stroke-linecap="butt" stroke-linejoin="miter"/><path d="M85.57,57.32c6,4.58 8.17,11.95 5.38,15.72c-3.59,4 -10.15,4.13 -16.17,-0.45c-6.02,-4.58 -9,-12.13 -5.78,-16.49c3.22,-4.36 10.55,-3.35 16.57,1.22z" fill="#ffffff" fill-rule="evenodd" stroke="#001026" stroke-width="1.7" stroke-linecap="round" stroke-linejoin="round"/><path d="M87.36,65.4c0.30107,1.35221 -0.52378,2.69971 -1.86496,3.04664c-1.34117,0.34693 -2.71598,-0.43157 -3.10837,-1.76016c-0.39239,-1.32858 0.33887,-2.7291 1.65332,-3.16649c1.42918,-0.34618 2.8817,0.47633 3.32,1.88" fill="#001026" fill-rule="evenodd" stroke="none" stroke-width="1" stroke-linecap="butt" stroke-linejoin="miter"/><path d="M152.8,99.01c-2.54,18 -15.57,31 -29.12,29.08c-13.55,-1.92 -22.47,-18 -19.94,-36c2.53,-18 15.58,-31 29.13,-29.07c13.55,1.93 22.47,18 19.93,36z" fill="#ffffff" fill-rule="nonzero" stroke="#000000" stroke-width="1.7" stroke-linecap="butt" stroke-linejoin="miter"/><path d="M132.25,78.09c3.12,9.37 -3,19.84 -13.61,23.39c-4.85399,1.77901 -10.19263,1.71139 -15,-0.19c-1.09,-12.74 3.2,-29.09 14.84,-34.54c6.4,1.21 11.76,5.32 13.77,11.37z" fill="#000000" fill-rule="nonzero" stroke="#001026" stroke-width="1.7" stroke-linecap="butt" stroke-linejoin="miter"/><path d="M390.78,348.75c0,0 -16.47,-22 -15.31,-32.28c1.15704,-10.32496 10.46504,-17.75704 20.79,-16.6c10.32496,1.15704 17.75704,10.46504 16.6,20.79c-1.16,10.33 -22.08,28.09 -22.08,28.09z" fill="#ff5600" fill-rule="nonzero" stroke="none" stroke-width="1" stroke-linecap="butt" stroke-linejoin="miter"/><path d="M405.74,314.41c-0.68,6.04 -12.91,16.41 -12.91,16.41c0,0 -9.68,-12.86 -9,-18.86c0.67655,-6.03923 6.12077,-10.38655 12.16,-9.71c6.03923,0.67655 10.38655,6.12077 9.71,12.16z" fill="#faff00" fill-rule="nonzero" stroke="none" stroke-width="1" stroke-linecap="butt" stroke-linejoin="miter"/><path d="M429.71,323.84c-1.25,11.23 -24,30.52 -24,30.52c0,0 -17.92,-23.85 -16.66,-35.08c1.25921,-11.23071 11.38429,-19.31421 22.615,-18.055c11.23071,1.25921 19.31421,11.38429 18.055,22.615z" fill="#ff5600" fill-rule="nonzero" stroke="none" stroke-width="1" stroke-linecap="butt" stroke-linejoin="miter"/><path d="M407.89,334.89c0,0 -10.48,-13.95 -9.74,-20.52c0.18257,-4.48735 2.85554,-8.49715 6.92734,-10.39191c4.0718,-1.89476 8.86079,-1.35728 12.41127,1.39294c3.55048,2.75022 5.26809,7.25279 4.4514,11.66897c-0.74,6.57 -14.05,17.85 -14.05,17.85z" fill="#faff00" fill-rule="nonzero" stroke="none" stroke-width="1" stroke-linecap="butt" stroke-linejoin="miter"/><path d="M358.39,236.98c2.16,-4.45 8.66,-1.86 10.16,3.77c3.71,15.97 -9.83,35.45 -25.21,34.65c-11.94,-0.54 -25,-5.05 -21,-14.47c4.04,-9.62 16.85,-0.96 22.29,-1.86c5.72,-1.03 11.66,-17.85 13.72,-22.09z" fill="#ffab19" fill-rule="evenodd" stroke="#001026" stroke-width="2.55" stroke-linecap="round" stroke-linejoin="round"/><path d="M369.91,235.42c-6.91,2.74 -7.15,5.74 -7.15,9.19c0.02,3.86 -0.96,6.56 8.54,11.86c0.46,3.48 1.29,5.29 1.59,9.48c-15.63,-5.95 -19.27,-12.21 -20.18,-18.74c-1.05,-7.55 2.7,-12.12 7.5,-15.12c7.48,-3.15 38.09,3.46 38.09,3.46c-2.84897,1.55074 -5.40971,3.58038 -7.57,6z" fill="#b5b5b5" fill-rule="nonzero" stroke="#000000" stroke-width="2.55" stroke-linecap="butt" stroke-linejoin="miter"/><path d="M395.44,273.26c1.74,-1.21 19.64,20.53 36,0.63c11.39,-13.69 12.59,-28.94 21,-25.29c8.62,3.71 11.17,30.71 -13.9,41.71c-23.19,10.06 -39.63,-1.82 -45.51,-8.44c-5.62,-6.75 0.64,-7.39 2.38,-8.61z" fill="#ffab19" fill-rule="evenodd" stroke="#001026" stroke-width="2.55" stroke-linecap="round" stroke-linejoin="round"/><path d="M451.1,249.24c5.31,0.88 7.37,9.6 6.06,17c-1.97,7.4 -4.57,11.21 -7.11,14.21c0.37228,-4.10045 -1.80673,-8.00996 -5.49,-9.85c-4.58,-2.42 -9.13,0.58 -9.13,0.58c3.07266,-4.38717 5.72441,-9.05453 7.92,-13.94c2.59,-5.18 3.45,-8.49 7.75,-8z" fill="#ffffff" fill-rule="evenodd" stroke="none" stroke-width="1" stroke-linecap="butt" stroke-linejoin="miter"/><path d="M377.16,291.07c0,0 1.53,-43.76 1.89,-53.92c0.14,-4 4.19,-8.18 11.33,-7.82l19.54,1c5.66,0.28 8.8,3.76 8.6,9.42c-0.34,9.73 -1.87,53.3 -1.87,53.3z" fill="#b5b5b5" fill-rule="nonzero" stroke="#000000" stroke-width="2.55" stroke-linecap="butt" stroke-linejoin="miter"/><path d="M376.39,302.9c0,0 2.87,-6.55 6.63,-14.27c11.35,0.81 19.74,1.06 27.83,1.73c2.83,7.95 5,14.95 5,14.95z" fill="#b5b5b5" fill-rule="nonzero" stroke="#000000" stroke-width="2.55" stroke-linecap="butt" stroke-linejoin="miter"/><path d="M377.36,274.71c4.57,9.44 -5.29,13.86 -12.59,14.77c-8.91,0.94 -10.13,-1.21 -10.39,1.33c-0.9,8.66 3.71,14.57 0.43,21.49c-2.17,4.48 -27.6,3.47 -32.43,0.62c-6.03,-3.59 -4.82,-19.5 14.42,-15.59c0,0 -4.79,-17.58 -0.5,-23.48c4.79,-4.97 23.8,-4.98 25.86,-6.27c6.09,-3.42 11.09,-0.98 15.2,7.13z" fill="#ffab19" fill-rule="evenodd" stroke="#001026" stroke-width="2.55" stroke-linecap="round" stroke-linejoin="round"/><path d="M391.89,294.06c0,0 1.53,-43.76 1.89,-53.92c0.14,-4 4.19,-8.17 11.34,-7.82l19.53,1c5.66,0.28 8.8,3.76 8.6,9.43c-0.39,9.75 -1.92,53.32 -1.92,53.32z" fill="#b5b5b5" fill-rule="nonzero" stroke="#000000" stroke-width="2.55" stroke-linecap="butt" stroke-linejoin="miter"/><path d="M391.08,305.92c0,0 2.87,-6.55 6.63,-14.27c11.35,0.81 19.74,1.06 27.83,1.74c2.82,7.94 5,14.94 5,14.94z" fill="#b5b5b5" fill-rule="nonzero" stroke="#000000" stroke-width="2.55" stroke-linecap="butt" stroke-linejoin="miter"/><path d="M348.17,285.03c3.53,-6 15.33,-9.95 15.33,-9.95c-1.83,-2.61 -3.87,-8.64 -5.51,-14.55c-1.37,-4.69 -1.75,-13.09 -1.75,-13.09c-0.16,-5.64 1.81,-15.72 8.4,-13.34c4.38,1.62 8.61,2.38 15.8,3.62c12.92,1.59 16.13,-0.08 18,10.59c3.59,19.73 11.8,35.61 -7.93,39.87c-4.83,1.1 -12.59,3.02 -19.59,5.2c-5.3,2.51 -1.95,12.77 0.7,19c1.15666,2.89017 -0.11844,6.18272 -2.92,7.54c-19.43,9.52 -25.52,13.11 -29.12,5c-4.89,-10.99 9.93,-15.29 9.93,-15.29c0,0 -4.72,-18.32 -1.33,-24.58z" fill="#ffab19" fill-rule="evenodd" stroke="#001026" stroke-width="2.55" stroke-linecap="round" stroke-linejoin="round"/><path d="M358.8,258.59c0,0 -2.18,-6.3 8.29,-8.91c11,-2.87 12.31,4.74 14.36,10.74c1.98,7.6 -3.05,9.29 -8.27,11.6c-4.23,1.97 -8.05,3.4 -8.05,3.4c-3.42116,-5.02534 -5.59147,-10.79569 -6.33,-16.83z" fill="#ffffff" fill-rule="evenodd" stroke="none" stroke-width="1" stroke-linecap="butt" stroke-linejoin="miter"/><path d="M403.09,237.27c6.81,12.77 17.4,31.8 11.57,39.49c-2.47,3.44 -17.77,15.53 -26.77,17c-9.71,1.41 -15.7,-12.02 -7.33,-17.26c5.88,-3.78 15.76,-10.03 15.82,-10.69c-0.12,-2.37 -5.84,-10 -4.84,-15" fill="#ffab19" fill-rule="evenodd" stroke="#001026" stroke-width="2.55" stroke-linecap="round" stroke-linejoin="round"/><path d="M398.34,242.25c-3.36,0.77 -6.75,5.2 -6.75,8.64c0.01,3.9 -1.32,2.2 4.09,12.43c-1.02,1.84 -0.07,0.58 -2.27,2.84c-14.22,-6.17 -13.95,-10.7 -14.86,-17.23c0.64,-5.87 4.42,-11.15 11.42,-13.39c4.12,-1.78 10.95,-0.5 10.95,-0.5c0,0 10.11,3.23 4.82,7.17z" fill="#b5b5b5" fill-rule="nonzero" stroke="#000000" stroke-width="2.55" stroke-linecap="butt" stroke-linejoin="miter"/><path d="M409.6,111.29c5.2897,0.73497 10.4666,2.12914 15.41,4.15c6.20296,2.49045 12.02891,5.83255 17.31,9.93l29.64,-7.94c0.94,-0.14 1.75,0.79 1.29,1.54l-16.07,34.73c-0.69,-2.01 12.92,32.85 -8.95,51.16c-21.87,18.31 -77.57,73.73 -113.07,53.81c-35.5,-19.92 -47.59,-65.92 -9.1,-110.43c8.08,-9.37 21.92,-10.25 21.92,-10.25c0,0 3.18,-9 13.27,-18c6,-5.4 22,-10.65 22,-10.65l12.3,-19.89c0.24072,-0.30748 0.6095,-0.48712 1,-0.48712c0.3905,0 0.75928,0.17964 1,0.48712z" fill="#ffab19" fill-rule="evenodd" stroke="#001026" stroke-width="2.55" stroke-linecap="butt" stroke-linejoin="miter"/><path d="M348.24,138.97c18.39,1.79 16.8,12.1 31,17.87c16.55,6.8 44.82,-1 51.27,25c6.54,25.83 -52.47,99.32 -98,73.22c-35.19,-19.57 -36.56,-74.46 -7.19,-104.65c8.62,-8.87 22.93,-11.41 22.93,-11.41z" fill="#ffffff" fill-rule="evenodd" stroke="none" stroke-width="1" stroke-linecap="butt" stroke-linejoin="miter"/><path d="M331.8,144.79c0,0 -14.44,-4.97 -21.44,-15.75" fill="none" fill-rule="nonzero" stroke="#001026" stroke-width="2.55" stroke-linecap="round" stroke-linejoin="round"/><path d="M327.09,156.43c0,0 -9.13,1.26 -21.51,-3.92" fill="none" fill-rule="nonzero" stroke="#001026" stroke-width="2.55" stroke-linecap="round" stroke-linejoin="round"/><path d="M391.68,156.42c-1.06,3.23 -11.19,5.49 -14.69,3.9c-3.16,-1.26 -4.34,-7.9 -3.21,-10.66c0.66,-1.35 5.24,-0.3 9.47,1.09c4,1.31 9.4,3.3 8.43,5.67z" fill="#001026" fill-rule="evenodd" stroke="#001026" stroke-width="2.55" stroke-linecap="round" stroke-linejoin="round"/><path d="M444.3,185.47c9.12,-3.9 28.33,-3.9 28.33,-3.9" fill="none" fill-rule="nonzero" stroke="#001026" stroke-width="2.55" stroke-linecap="round" stroke-linejoin="round"/><path d="M464.6,201.33c0,0 -15.66,-2.72 -23.22,-9" fill="none" fill-rule="nonzero" stroke="#001026" stroke-width="2.55" stroke-linecap="round" stroke-linejoin="round"/><path d="M364.79,123.4c8.83,-7.16 19.77,-8.49 24.17,-2.81c4.41,5.49 0.83,15.72 -8,22.88c-9.03,7.1 -19.71,8.3 -24.17,2.81c-4.46,-5.49 -0.88,-15.72 7.95,-22.88z" fill="#ffffff" fill-rule="evenodd" stroke="#001026" stroke-width="2.55" stroke-linecap="round" stroke-linejoin="round"/><path d="M361.78,135.17c0.28286,-1.0424 0.96942,-1.92912 1.90778,-2.46398c0.93836,-0.53487 2.05117,-0.67378 3.09222,-0.38602c1.94884,0.66546 3.0258,2.74975 2.44107,4.72432c-0.58473,1.97457 -2.62296,3.13635 -4.6199,2.63335c-1.99695,-0.50301 -3.2416,-2.49172 -2.82116,-4.50767" fill="#001026" fill-rule="evenodd" stroke="none" stroke-width="1" stroke-linecap="butt" stroke-linejoin="miter"/><path d="M437.71,143.52c4.81,6.49 0.63,17.87 -8.54,24.7c-8.96,6.89 -18.77,6.79 -24.17,0.79c-4.2,-5.62 -1.06,-16.65 7.94,-23.55c8.97,-6.94 20.04,-8.63 24.77,-1.94z" fill="#ffffff" fill-rule="evenodd" stroke="#001026" stroke-width="2.55" stroke-linecap="round" stroke-linejoin="round"/><path d="M410.31,157.56c0.65158,-2.1214 2.84423,-3.36682 5,-2.84c1.95918,0.66377 3.04368,2.75706 2.45591,4.74036c-0.58777,1.9833 -2.63771,3.14767 -4.6422,2.63677c-2.00448,-0.5109 -3.24699,-2.51445 -2.81371,-4.53713" fill="#001026" fill-rule="evenodd" stroke="none" stroke-width="1" stroke-linecap="butt" stroke-linejoin="miter"/><path d="M312.69,208.31c-3.92,-26.88 9.32,-51.04 29.56,-54c20.24,-2.96 39.83,16.36 43.75,43.24c3.92,26.88 -9.31,51.04 -29.56,54c-20.25,2.96 -39.84,-16.42 -43.76,-43.27z" fill="#ffffff" fill-rule="nonzero" stroke="#000000" stroke-width="2.55" stroke-linecap="butt" stroke-linejoin="miter"/><path d="M363.76,159.75c17.48,8.11 23.98,32.53 22.48,51.58c-6.73,2.9 -14.48,3.01 -22.48,0.4c-15.93,-5.23 -25.11,-20.89 -20.51,-34.89c3,-9.09 11,-15.24 20.51,-17.09z" fill="#000000" fill-rule="nonzero" stroke="#001026" stroke-width="2.55" stroke-linecap="butt" stroke-linejoin="miter"/><path d="M246.19,259.47c-11.48,5.07 -25.61,-45.79 4,-58c30.15,-12.43 61.43,29.14 61.43,29.14z" fill="#efab00" fill-rule="evenodd" stroke="none" stroke-width="1" stroke-linecap="butt" stroke-linejoin="miter"/><path d="M324.76,201.89c0,0 -52.59,42.16 -62.59,48.46c-13.39,8.43 -20.17,5.92 -25.19,-0.78c-8.3,-11.07 1.48,-15.88 1.57,-24c0.09,-8.12 -12,-15.88 2.1,-22.76c11.74,-5.75 7.87,-15 13.45,-18.28c8.65,-5.07 14.46,2.71 22.27,2.14c7.38,-0.53 8.16,-7.84 16.55,-8.12c7.19,-0.24 13.23,12.7 22.47,11.86c15.06,-1.36 9.37,11.45 9.37,11.45" fill="#59c059" fill-rule="evenodd" stroke="none" stroke-width="1" stroke-linecap="butt" stroke-linejoin="miter"/><path d="M245.66,232.27c-1.47491,0.17076 -2.81261,-0.87711 -3,-2.35l-0.36,-3c-0.17047,-1.47836 0.88307,-2.8176 2.36,-3l7.89,-1c1.47676,-0.16484 2.8125,0.88595 3,2.36l0.36,3c0.17047,1.47836 -0.88307,2.8176 -2.36,3l-7.89,1" fill="#e8511c" fill-rule="evenodd" stroke="none" stroke-width="1" stroke-linecap="butt" stroke-linejoin="miter"/><path d="M240.19,232.49c1.6,-0.27 4.35,0.38 6.21,0.06c0.63,13.18 4.6,24.32 -0.61,27.07v0c-4.28,1.49 -10.45,-0.41 -9.63,-5.53c0.49,-3 -3.18,-4.92 -3.74,-7.92c-0.8,-4.33 2.83,-6.94 4.05,-8c1.22,-1.06 1.37,-5.35 3.75,-5.74" fill="#c18500" fill-rule="evenodd" stroke="none" stroke-width="1" stroke-linecap="butt" stroke-linejoin="miter"/><path d="M249.12,223.41c-0.24257,2.81364 -0.276,5.64141 -0.1,8.46l-1.35,0.15l-1.29,0.16c-0.1318,-2.82182 -0.05492,-5.64951 0.23,-8.46z" fill="#c6431a" fill-rule="evenodd" stroke="none" stroke-width="1" stroke-linecap="butt" stroke-linejoin="miter"/><path d="M249.02,231.87c0.68,12.86 4.45,23.7 -0.51,26.54c-0.61,0.26 -0.91,0.4 -1.9,0.88l-0.26,0.11c-0.19,0.09 -0.37,0.15 -0.56,0.22c5.21,-2.75 1.23,-13.89 0.61,-27.07c0.463,-0.06035 0.90146,-0.24333 1.27,-0.53z" fill="#a06b00" fill-rule="evenodd" stroke="none" stroke-width="1" stroke-linecap="butt" stroke-linejoin="miter"/><path d="M244.53,215.5c-0.9742,1.12787 -2.67631,1.25743 -3.81,0.29l-0.44,-0.37c-1.12787,-0.9742 -1.25743,-2.67631 -0.29,-3.81l2.68,-3.12c0.97396,-1.12568 2.67186,-1.25937 3.81,-0.3l0.43,0.38c1.12568,0.97396 1.25937,2.67186 0.3,3.81l-2.68,3.12" fill="#e8511c" fill-rule="evenodd" stroke="none" stroke-width="1" stroke-linecap="butt" stroke-linejoin="miter"/><path d="M274.37,189.88c-0.92,0.42 -1.84,0.89 -2.78,1.39c-16.39,8.79 -21.46,20.73 -22.47,32.14l-2.51,0.31c1.18,-11.17 6.4,-22.73 22.39,-31.31c1.74393,-0.93785 3.53645,-1.78237 5.37,-2.53" fill="#4ba04b" fill-rule="evenodd" stroke="none" stroke-width="1" stroke-linecap="butt" stroke-linejoin="miter"/><path d="M312.06,196.04c-1.201,-0.88546 -1.46027,-2.57519 -0.58,-3.78l0.89,-1.22c0.88544,-1.19927 2.57121,-1.46239 3.78,-0.59l4.53,3.32c1.20431,0.88237 1.46813,2.57259 0.59,3.78l-0.9,1.22c-0.88237,1.20431 -2.57259,1.46813 -3.78,0.59l-4.53,-3.32" fill="#e8511c" fill-rule="evenodd" stroke="none" stroke-width="1" stroke-linecap="butt" stroke-linejoin="miter"/><path d="M275.39,191.85c-1.09164,1.01204 -2.79403,0.95856 -3.82,-0.12l-1,-1.11c-1.02019,-1.08687 -0.97104,-2.79363 0.11,-3.82l4.09,-3.85c1.08958,-1.01754 2.79644,-0.96392 3.82,0.12l1,1.1c1.02133,1.09025 0.97222,2.80017 -0.11,3.83l-4.09,3.85" fill="#e8511c" fill-rule="evenodd" stroke="none" stroke-width="1" stroke-linecap="butt" stroke-linejoin="miter"/><path d="M248.09,258.64c11.37,-5 -16.83,-45.75 23.5,-67.37c32.1,-17.21 52.77,7.35 61,21.39c1.03157,1.74139 1.2709,3.84026 0.65784,5.76918c-0.61305,1.92892 -2.0202,3.50451 -3.86784,4.33082z" fill="#ffbf00" fill-rule="evenodd" stroke="none" stroke-width="1" stroke-linecap="butt" stroke-linejoin="miter"/><path d="M256.79,196.28c-0.53461,0.23838 -1.16145,0.11356 -1.56396,-0.31144c-0.40251,-0.425 -0.49311,-1.05769 -0.22604,-1.57856l4.25,-8.34c0.34794,-0.67931 1.18069,-0.94794 1.86,-0.6c0.67931,0.34794 0.94794,1.18069 0.6,1.86l-4.25,8.33c-0.14612,0.28178 -0.38183,0.50694 -0.67,0.64" fill="#ffbf00" fill-rule="evenodd" stroke="none" stroke-width="1" stroke-linecap="butt" stroke-linejoin="miter"/><path d="M301.62,181.22c-0.07629,0.03672 -0.15694,0.0636 -0.24,0.08l-9.13,2.12c-0.74282,0.17397 -1.48603,-0.28718 -1.66,-1.03c-0.17397,-0.74282 0.28718,-1.48603 1.03,-1.66l9.11,-2.12c0.69848,-0.17226 1.41212,0.22097 1.63961,0.90346c0.2275,0.68249 -0.10747,1.42525 -0.76961,1.70654" fill="#ffbf00" fill-rule="evenodd" stroke="none" stroke-width="1" stroke-linecap="butt" stroke-linejoin="miter"/><path d="M241.25,238.86c-0.28955,0.1282 -0.61438,0.15291 -0.92,0.07l-9,-2.49c-0.70985,-0.22146 -1.11659,-0.96552 -0.9198,-1.6826c0.19679,-0.71708 0.92635,-1.14929 1.6498,-0.9774l9,2.48c0.56748,0.15197 0.97654,0.64654 1.01935,1.23245c0.04282,0.58591 -0.29,1.1347 -0.82935,1.36755" fill="#ffbf00" fill-rule="evenodd" stroke="none" stroke-width="1" stroke-linecap="butt" stroke-linejoin="miter"/><path d="M310.96,203.75c-0.86763,0.30819 -1.82617,-0.10444 -2.19865,-0.94647c-0.37249,-0.84203 -0.03302,-1.82885 0.77865,-2.26353c0.86763,-0.30819 1.82617,0.10444 2.19865,0.94647c0.37249,0.84203 0.03302,1.82885 -0.77865,2.26353" fill="#efab00" fill-rule="evenodd" stroke="none" stroke-width="1" stroke-linecap="butt" stroke-linejoin="miter"/><path d="M295.81,213.89c-0.87333,0.34148 -1.86062,-0.06609 -2.23872,-0.9242c-0.3781,-0.85811 -0.01264,-1.86175 0.82872,-2.2758c0.87333,-0.34148 1.86062,0.06609 2.23872,0.9242c0.3781,0.85811 0.01264,1.86175 -0.82872,2.2758" fill="#efab00" fill-rule="evenodd" stroke="none" stroke-width="1" stroke-linecap="butt" stroke-linejoin="miter"/><path d="M299.65,227.96c-0.88642,0.3866 -1.9184,-0.01858 -2.305,-0.905c-0.3866,-0.88642 0.01858,-1.9184 0.905,-2.305c0.87333,-0.34148 1.86062,0.06609 2.23872,0.9242c0.3781,0.85811 0.01264,1.86175 -0.82872,2.2758" fill="#efab00" fill-rule="evenodd" stroke="none" stroke-width="1" stroke-linecap="butt" stroke-linejoin="miter"/><path d="M273.25,241.54c-0.88642,0.38936 -1.92064,-0.01358 -2.31,-0.9c-0.38936,-0.88642 0.01358,-1.92064 0.9,-2.31c0.88642,-0.38936 1.92064,0.01358 2.31,0.9c0.38936,0.88642 -0.01358,1.92064 -0.9,2.31" fill="#efab00" fill-rule="evenodd" stroke="none" stroke-width="1" stroke-linecap="butt" stroke-linejoin="miter"/><path d="M264.1,212.28c-0.88642,0.38936 -1.92064,-0.01358 -2.31,-0.9c-0.38936,-0.88642 0.01358,-1.92064 0.9,-2.31c0.88642,-0.38936 1.92064,0.01358 2.31,0.9c0.38936,0.88642 -0.01358,1.92064 -0.9,2.31" fill="#efab00" fill-rule="evenodd" stroke="none" stroke-width="1" stroke-linecap="butt" stroke-linejoin="miter"/><path d="M277.89,197.52c-0.88366,0.39212 -1.91788,-0.00634 -2.31,-0.89c-0.39212,-0.88366 0.00634,-1.91788 0.89,-2.31c0.88366,-0.39212 1.91788,0.00634 2.31,0.89c0.39212,0.88366 -0.00634,1.91788 -0.89,2.31" fill="#efab00" fill-rule="evenodd" stroke="none" stroke-width="1" stroke-linecap="butt" stroke-linejoin="miter"/><path d="M279.38,223.46c-0.87333,0.34148 -1.86062,-0.06609 -2.23872,-0.9242c-0.3781,-0.85811 -0.01264,-1.86175 0.82872,-2.2758c0.87333,-0.34148 1.86062,0.06609 2.23872,0.9242c0.3781,0.85811 0.01264,1.86175 -0.82872,2.2758" fill="#efab00" fill-rule="evenodd" stroke="none" stroke-width="1" stroke-linecap="butt" stroke-linejoin="miter"/><path d="M262.25,232.55c-0.87333,0.34148 -1.86062,-0.06609 -2.23872,-0.9242c-0.3781,-0.85811 -0.01264,-1.86175 0.82872,-2.2758c0.87333,-0.34148 1.86062,0.06609 2.23872,0.9242c0.3781,0.85811 0.01264,1.86175 -0.82872,2.2758" fill="#efab00" fill-rule="evenodd" stroke="none" stroke-width="1" stroke-linecap="butt" stroke-linejoin="miter"/><path d="M319.83,215.42c-0.88366,0.39212 -1.91788,-0.00634 -2.31,-0.89c-0.39212,-0.88366 0.00634,-1.91788 0.89,-2.31c0.88366,-0.39212 1.91788,0.00634 2.31,0.89c0.39212,0.88366 -0.00634,1.91788 -0.89,2.31" fill="#efab00" fill-rule="evenodd" stroke="none" stroke-width="1" stroke-linecap="butt" stroke-linejoin="miter"/><path d="M296.38,196.12c-0.87333,0.34148 -1.86062,-0.06609 -2.23872,-0.9242c-0.3781,-0.85811 -0.01264,-1.86175 0.82872,-2.2758c0.87333,-0.34148 1.86062,0.06609 2.23872,0.9242c0.3781,0.85811 0.01264,1.86175 -0.82872,2.2758" fill="#efab00" fill-rule="evenodd" stroke="none" stroke-width="1" stroke-linecap="butt" stroke-linejoin="miter"/><path d="M246.38,232.18l1.29,-0.16c-0.36854,0.28667 -0.807,0.46965 -1.27,0.53c0,-0.12 0,-0.24 0,-0.37" fill="#4ba04b" fill-rule="evenodd" stroke="none" stroke-width="1" stroke-linecap="butt" stroke-linejoin="miter"/><path d="M166.06,118.75c2.25,6.86 -27.67,12.11 -33,-5.53c-5.43,-18 20.14,-33.56 20.14,-33.56z" fill="#efab00" fill-rule="evenodd" stroke="none" stroke-width="1" stroke-linecap="butt" stroke-linejoin="miter"/><path d="M137.47,70.48c0,0 21.21,32.5 24.25,38.58c4.08,8.15 2.26,11.89 -1.85,14.39c-6.81,4.14 -9,-1.74 -13.65,-2.24c-4.65,-0.5 -9.77,6 -12.92,-2.48c-2.63,-7 -8.16,-5.35 -9.72,-8.73c-2.42,-5.25 2.36,-8.14 2.48,-12.64c0.11,-4.26 -4,-5.12 -3.72,-9.94c0.26,-4.13 8,-6.87 8,-12.21c0.06,-8.71 7.08,-4.73 7.08,-4.73" fill="#59c059" fill-rule="evenodd" stroke="none" stroke-width="1" stroke-linecap="butt" stroke-linejoin="miter"/><path d="M150.44,117.51c0.01678,0.85781 -0.6623,1.56816 -1.52,1.59h-1.71c-0.41282,0.01073 -0.81285,-0.14371 -1.11136,-0.42908c-0.2985,-0.28536 -0.47079,-0.67804 -0.47864,-1.09092l-0.11,-4.57c-0.01075,-0.41378 0.14339,-0.81486 0.42848,-1.11495c0.28508,-0.30009 0.67774,-0.47458 1.09152,-0.48505h1.71c0.85954,-0.01686 1.57279,0.66072 1.6,1.52l0.1,4.58" fill="#e8511c" fill-rule="evenodd" stroke="none" stroke-width="1" stroke-linecap="butt" stroke-linejoin="miter"/><path d="M150.25,120.66c-0.07,-0.94 0.47,-2.48 0.38,-3.56c7.59,0.38 14.2,-1.27 15.48,1.87v0c0.6,2.53 -0.83,6 -3.72,5.2c-1.71,-0.45 -3,1.55 -4.75,1.7c-2.52,0.22 -3.81,-2 -4.32,-2.76c-0.51,-0.76 -3,-1.09 -3.08,-2.47" fill="#c18500" fill-rule="evenodd" stroke="none" stroke-width="1" stroke-linecap="butt" stroke-linejoin="miter"/><path d="M145.56,115.03c1.59784,0.29725 3.2157,0.47441 4.84,0.53v0.78v0.75c-1.62622,-0.0831 -3.24402,-0.28699 -4.84,-0.61z" fill="#c6431a" fill-rule="evenodd" stroke="none" stroke-width="1" stroke-linecap="butt" stroke-linejoin="miter"/><path d="M150.4,115.56c7.41,0.34 13.83,-1.22 15.18,1.78c0.12,0.36 0.18,0.54 0.4,1.14l0.05,0.15l0.09,0.34c-1.28,-3.14 -7.89,-1.49 -15.48,-1.87c-0.00284,-0.27005 -0.08262,-0.53369 -0.23,-0.76z" fill="#a06b00" fill-rule="evenodd" stroke="none" stroke-width="1" stroke-linecap="butt" stroke-linejoin="miter"/><path d="M140.77,117.22c0.59037,0.61878 0.56799,1.59881 -0.05,2.19l-0.23,0.23c-0.60851,0.60511 -1.59149,0.60511 -2.2,0l-1.64,-1.71c-0.5997,-0.61073 -0.5997,-1.58927 0,-2.2l0.24,-0.23c0.62217,-0.59151 1.60534,-0.56916 2.2,0.05l1.64,1.71" fill="#e8511c" fill-rule="evenodd" stroke="none" stroke-width="1" stroke-linecap="butt" stroke-linejoin="miter"/><path d="M127.76,98.68c0.19,0.55 0.41,1.11 0.65,1.67c4.11,9.89 10.67,13.46 17.15,14.68v1.45c-6.33,-1.3 -12.66,-4.94 -16.67,-14.58c-0.44483,-1.05148 -0.83207,-2.12641 -1.16,-3.22" fill="#4ba04b" fill-rule="evenodd" stroke="none" stroke-width="1" stroke-linecap="butt" stroke-linejoin="miter"/><path d="M133.41,77.43c-0.57204,0.64253 -1.55627,0.70068 -2.2,0.13l-0.65,-0.59c-0.30654,-0.27437 -0.49142,-0.65935 -0.51393,-1.07013c-0.02251,-0.41078 0.11921,-0.81365 0.39393,-1.11987l2.15,-2.42c0.57744,-0.63424 1.557,-0.68767 2.2,-0.12l0.65,0.58c0.64253,0.57204 0.70068,1.55627 0.13,2.2l-2.16,2.41" fill="#e8511c" fill-rule="evenodd" stroke="none" stroke-width="1" stroke-linecap="butt" stroke-linejoin="miter"/><path d="M128.95,98.21c0.52132,0.68022 0.3963,1.65361 -0.28,2.18l-0.69,0.54c-0.68493,0.51679 -1.65712,0.39249 -2.19,-0.28l-2,-2.56c-0.52239,-0.68344 -0.39753,-1.65998 0.28,-2.19l0.69,-0.53c0.68022,-0.52132 1.65361,-0.3963 2.18,0.28l2,2.56" fill="#e8511c" fill-rule="evenodd" stroke="none" stroke-width="1" stroke-linecap="butt" stroke-linejoin="miter"/><path d="M165.68,117.6c-2.23,-6.8 -27.15,7.07 -37.27,-17.25c-8.06,-19.36 7.17,-29.82 15.68,-33.76c1.05345,-0.49707 2.26939,-0.51895 3.34004,-0.0601c1.07065,0.45885 1.89339,1.35445 2.25996,2.4601z" fill="#ffbf00" fill-rule="evenodd" stroke="none" stroke-width="1" stroke-linecap="butt" stroke-linejoin="miter"/><path d="M130.44,109.11c0.07956,0.22688 0.05004,0.47778 -0.08,0.68c-0.11293,0.179 -0.29296,0.30521 -0.49975,0.35033c-0.20678,0.04512 -0.42303,0.00537 -0.60025,-0.11033l-4.53,-2.9c-0.179,-0.11293 -0.30521,-0.29296 -0.35033,-0.49975c-0.04512,-0.20678 -0.00537,-0.42303 0.11033,-0.60025c0.11102,-0.17835 0.28929,-0.30437 0.49446,-0.34955c0.20517,-0.04517 0.41988,-0.00568 0.59554,0.10955l4.54,2.9c0.15468,0.09589 0.26861,0.24541 0.32,0.42" fill="#ffbf00" fill-rule="evenodd" stroke="none" stroke-width="1" stroke-linecap="butt" stroke-linejoin="miter"/><path d="M124.34,82.58v0.15l0.7,5.34c0.067,0.29675 -0.0401,0.60581 -0.27635,0.79747c-0.23625,0.19166 -0.56076,0.23274 -0.83732,0.10599c-0.27655,-0.12675 -0.45729,-0.39938 -0.46634,-0.70346l-0.7,-5.34c-0.05312,-0.43572 0.25478,-0.83287 0.69,-0.89c0.37792,-0.04434 0.73576,0.18034 0.86,0.54" fill="#ffbf00" fill-rule="evenodd" stroke="none" stroke-width="1" stroke-linecap="butt" stroke-linejoin="miter"/><path d="M153.97,120.41c0.06022,0.17153 0.06022,0.35847 0,0.53l-1.93,5c-0.16195,0.39106 -0.59768,0.59149 -1,0.46c-0.39473,-0.15811 -0.59679,-0.59739 -0.46,-1l1.93,-5c0.10703,-0.32342 0.40933,-0.54181 0.75,-0.54181c0.34067,0 0.64297,0.21838 0.75,0.54181" fill="#ffbf00" fill-rule="evenodd" stroke="none" stroke-width="1" stroke-linecap="butt" stroke-linejoin="miter"/><path d="M137.79,78.5c0.17397,0.53019 -0.11481,1.10103 -0.645,1.275c-0.53019,0.17397 -1.10103,-0.11481 -1.275,-0.645c-0.17397,-0.53019 0.11481,-1.10103 0.645,-1.275c0.53019,-0.17397 1.10103,0.11481 1.275,0.645" fill="#efab00" fill-rule="evenodd" stroke="none" stroke-width="1" stroke-linecap="butt" stroke-linejoin="miter"/><path d="M142.73,87.75c0.17397,0.53019 -0.11481,1.10103 -0.645,1.275c-0.53019,0.17397 -1.10103,-0.11481 -1.275,-0.645c-0.17397,-0.53019 0.11481,-1.10103 0.645,-1.275c0.53019,-0.17397 1.10103,0.11481 1.275,0.645" fill="#efab00" fill-rule="evenodd" stroke="none" stroke-width="1" stroke-linecap="butt" stroke-linejoin="miter"/><path d="M151,86.33c0.17397,0.52743 -0.11257,1.09603 -0.64,1.27c-0.52743,0.17397 -1.09603,-0.11257 -1.27,-0.64c-0.17397,-0.52743 0.11257,-1.09603 0.64,-1.27c0.52743,-0.17397 1.09603,0.11257 1.27,0.64" fill="#efab00" fill-rule="evenodd" stroke="none" stroke-width="1" stroke-linecap="butt" stroke-linejoin="miter"/><path d="M157.3,102.24c0.17397,0.53019 -0.11481,1.10103 -0.645,1.275c-0.53019,0.17397 -1.10103,-0.11481 -1.275,-0.645c-0.17397,-0.53019 0.11481,-1.10103 0.645,-1.275c0.53019,-0.17397 1.10103,0.11481 1.275,0.645" fill="#efab00" fill-rule="evenodd" stroke="none" stroke-width="1" stroke-linecap="butt" stroke-linejoin="miter"/><path d="M140.02,105.82c0.17397,0.52743 -0.11257,1.09603 -0.64,1.27c-0.52743,0.17397 -1.09603,-0.11257 -1.27,-0.64c-0.17397,-0.52743 0.11257,-1.09603 0.64,-1.27c0.52743,-0.17397 1.09603,0.11257 1.27,0.64" fill="#efab00" fill-rule="evenodd" stroke="none" stroke-width="1" stroke-linecap="butt" stroke-linejoin="miter"/><path d="M132.34,97.1c0.17397,0.52743 -0.11257,1.09603 -0.64,1.27c-0.52743,0.17397 -1.09603,-0.11257 -1.27,-0.64c-0.17397,-0.52743 0.11257,-1.09603 0.64,-1.27c0.52743,-0.17397 1.09603,0.11257 1.27,0.64" fill="#efab00" fill-rule="evenodd" stroke="none" stroke-width="1" stroke-linecap="butt" stroke-linejoin="miter"/><path d="M147.25,97.69c0.17397,0.53019 -0.11481,1.10103 -0.645,1.275c-0.53019,0.17397 -1.10103,-0.11481 -1.275,-0.645c-0.17397,-0.53019 0.11481,-1.10103 0.645,-1.275c0.53019,-0.17397 1.10103,0.11481 1.275,0.645" fill="#efab00" fill-rule="evenodd" stroke="none" stroke-width="1" stroke-linecap="butt" stroke-linejoin="miter"/><path d="M151.53,108.05c0.17397,0.52743 -0.11257,1.09603 -0.64,1.27c-0.52743,0.17397 -1.09603,-0.11257 -1.27,-0.64c-0.17397,-0.52743 0.11257,-1.09603 0.64,-1.27c0.52743,-0.17397 1.09603,0.11257 1.27,0.64" fill="#efab00" fill-rule="evenodd" stroke="none" stroke-width="1" stroke-linecap="butt" stroke-linejoin="miter"/><path d="M144.95,74.07c0.17397,0.53019 -0.11481,1.10103 -0.645,1.275c-0.53019,0.17397 -1.10103,-0.11481 -1.275,-0.645c-0.17397,-0.53019 0.11481,-1.10103 0.645,-1.275c0.53019,-0.17397 1.10103,0.11481 1.275,0.645" fill="#efab00" fill-rule="evenodd" stroke="none" stroke-width="1" stroke-linecap="butt" stroke-linejoin="miter"/><path d="M132.58,86.42c0.17397,0.53019 -0.11481,1.10103 -0.645,1.275c-0.53019,0.17397 -1.10103,-0.11481 -1.275,-0.645c-0.17397,-0.53019 0.11481,-1.10103 0.645,-1.275c0.53019,-0.17397 1.10103,0.11481 1.275,0.645" fill="#efab00" fill-rule="evenodd" stroke="none" stroke-width="1" stroke-linecap="butt" stroke-linejoin="miter"/><path d="M150.43,117.09v-0.75c0.14738,0.22631 0.22716,0.48995 0.23,0.76h-0.21" fill="#4ba04b" fill-rule="evenodd" stroke="none" stroke-width="1" stroke-linecap="butt" stroke-linejoin="miter"/><path d="M446.85,34.75c15.09,4.36 -12.18,64.54 -50.4,52.49c-38.93,-12.26 -35.58,-77.31 -35.58,-77.31z" fill="#efab00" fill-rule="evenodd" stroke="none" stroke-width="1" stroke-linecap="butt" stroke-linejoin="miter"/><path d="M325.16,26.92c0,0 84.36,1.75 99,3.74c19.63,2.66 24.13,10.52 23.57,21c-0.92,17.3 -14.18,14 -20.75,21.75c-6.57,7.75 -1.29,24.84 -20.3,20.17c-15.89,-3.92 -19.62,8.09 -27.6,6.75c-12.38,-2.09 -11.71,-14.22 -19.66,-20c-7.51,-5.41 -14.12,1 -22.41,-5.49c-7.1,-5.55 -2.51,-22.81 -12,-29.43c-15.56,-10.79 0.19,-18.52 0.19,-18.52" fill="#59c059" fill-rule="evenodd" stroke="none" stroke-width="1" stroke-linecap="butt" stroke-linejoin="miter"/><path d="M425.51,61.27c1.56065,1.02159 2.00685,3.1098 1,4.68l-2,3.13c-1.02159,1.56065 -3.1098,2.00685 -4.68,1l-8.34,-5.41c-1.56065,-1.02159 -2.00685,-3.1098 -1,-4.68l2,-3.14c1.01824,-1.56552 3.11086,-2.01267 4.68,-1l8.35,5.41" fill="#e8511c" fill-rule="evenodd" stroke="none" stroke-width="1" stroke-linecap="butt" stroke-linejoin="miter"/><path d="M430.94,65.46c-1.76,-1 -3.87,-3.87 -5.92,-5c10,-13.15 15.11,-27 22.33,-25.5v0c5.3,2 9.7,8.79 4.8,13c-2.91,2.52 -0.9,7.28 -2.78,10.61c-2.7,4.8 -8.28,4.39 -10.26,4.38c-2.15,0 -5.61,4 -8.21,2.5" fill="#c18500" fill-rule="evenodd" stroke="none" stroke-width="1" stroke-linecap="butt" stroke-linejoin="miter"/><path d="M415.07,67c2.48875,-2.49502 4.79157,-5.16882 6.89,-8l1.42,0.93l1.37,0.88c-2.13326,2.81654 -4.47305,5.47053 -7,7.94z" fill="#c6431a" fill-rule="evenodd" stroke="none" stroke-width="1" stroke-linecap="butt" stroke-linejoin="miter"/><path d="M421.96,58.97c9.68,-12.9 14.77,-26.34 21.8,-25.08c0.8,0.23 1.2,0.35 2.54,0.68l0.33,0.09l0.72,0.25c-7.22,-1.55 -12.34,12.35 -22.33,25.5c-0.48644,-0.31592 -1.05024,-0.49233 -1.63,-0.51z" fill="#a06b00" fill-rule="evenodd" stroke="none" stroke-width="1" stroke-linecap="butt" stroke-linejoin="miter"/><path d="M413.13,78.29c0.88453,-0.14743 1.79139,0.06267 2.52097,0.58406c0.72957,0.52139 1.22205,1.31133 1.36903,2.19594l0.12,0.7c0.30731,1.84418 -0.93644,3.58901 -2.78,3.9l-5.08,0.84c-1.83405,0.30203 -3.56927,-0.92913 -3.89,-2.76l-0.12,-0.71c-0.29583,-1.84151 0.94271,-3.57903 2.78,-3.9l5.08,-0.84" fill="#e8511c" fill-rule="evenodd" stroke="none" stroke-width="1" stroke-linecap="butt" stroke-linejoin="miter"/><path d="M363.9,78.92c1.22,0.34 2.48,0.63 3.79,0.9c22.79,4.72 37.25,-2.67 47.38,-12.82l2.65,1.75c-10.09,9.78 -24.39,16.68 -46.62,12.08c-2.43308,-0.49236 -4.83681,-1.12 -7.2,-1.88" fill="#4ba04b" fill-rule="evenodd" stroke="none" stroke-width="1" stroke-linecap="butt" stroke-linejoin="miter"/><path d="M332.66,42.75c0.44649,1.81136 -0.65902,3.64194 -2.47,4.09l-1.85,0.46c-1.81355,0.44 -3.64167,-0.6685 -4.09,-2.48l-1.69,-6.83c-0.44649,-1.81136 0.65902,-3.64194 2.47,-4.09l1.84,-0.46c1.81377,-0.44692 3.64729,0.65766 4.1,2.47l1.69,6.84" fill="#e8511c" fill-rule="evenodd" stroke="none" stroke-width="1" stroke-linecap="butt" stroke-linejoin="miter"/><path d="M364.51,76.22c1.86212,-0.10243 3.45729,1.31847 3.57,3.18l0.11,1.89c0.10815,1.86592 -1.31434,3.46735 -3.18,3.58l-7,0.41c-1.86212,0.10243 -3.45729,-1.31847 -3.57,-3.18l-0.11,-1.89c-0.10815,-1.86592 1.31434,-3.46735 3.18,-3.58l7,-0.41" fill="#e8511c" fill-rule="evenodd" stroke="none" stroke-width="1" stroke-linecap="butt" stroke-linejoin="miter"/><path d="M444.35,34.01c-15,-4.32 -20.58,57.44 -76.66,45.81c-44.65,-9.25 -44.77,-49.43 -41.44,-69.55c0.40238,-2.50219 1.85702,-4.71229 3.99609,-6.07143c2.13907,-1.35914 4.75777,-1.7372 7.19391,-1.03857z" fill="#ffbf00" fill-rule="evenodd" stroke="none" stroke-width="1" stroke-linecap="butt" stroke-linejoin="miter"/><path d="M385.92,86.9c0.50525,0.14281 0.91543,0.51234 1.11,1c0.36923,0.8782 -0.0364,1.89003 -0.91,2.27l-10.78,4.58c-0.57522,0.28275 -1.25962,0.2243 -1.77856,-0.1519c-0.51894,-0.37619 -0.78736,-1.00847 -0.69754,-1.6431c0.08982,-0.63463 0.52315,-1.16759 1.1261,-1.38501l10.77,-4.58c0.36582,-0.16146 0.77742,-0.18629 1.16,-0.07" fill="#ffbf00" fill-rule="evenodd" stroke="none" stroke-width="1" stroke-linecap="butt" stroke-linejoin="miter"/><path d="M330.78,65.35c0.10532,0.02515 0.20639,0.06558 0.3,0.12l10.45,5.28c0.4114,0.20382 0.72423,0.56367 0.86885,0.99941c0.14462,0.43575 0.10903,0.91123 -0.09885,1.32059c-0.43265,0.85388 -1.47375,1.19793 -2.33,0.77l-10.45,-5.29c-0.7803,-0.41121 -1.12632,-1.34361 -0.80317,-2.16431c0.32315,-0.8207 1.21198,-1.26688 2.06317,-1.03569" fill="#ffbf00" fill-rule="evenodd" stroke="none" stroke-width="1" stroke-linecap="butt" stroke-linejoin="miter"/><path d="M435.04,58.5c0.38519,0.10554 0.72129,0.34258 0.95,0.67l6.66,9.63c0.55228,0.78424 0.36424,1.86772 -0.42,2.42c-0.78424,0.55228 -1.86772,0.36424 -2.42,-0.42l-6.67,-9.63c-0.26133,-0.37616 -0.36184,-0.84101 -0.27924,-1.29153c0.08259,-0.45052 0.34147,-0.84948 0.71924,-1.10847c0.42451,-0.2987 0.96221,-0.38709 1.46,-0.24" fill="#ffbf00" fill-rule="evenodd" stroke="none" stroke-width="1" stroke-linecap="butt" stroke-linejoin="miter"/><path d="M339.94,36.18c2.71,0.79 1.5,5 -1.21,4.22c-2.71,-0.78 -1.5,-5 1.21,-4.22" fill="#efab00" fill-rule="evenodd" stroke="none" stroke-width="1" stroke-linecap="butt" stroke-linejoin="miter"/><path d="M362.6,38.64c2.71,0.79 1.5,5 -1.22,4.21c-2.72,-0.79 -1.5,-5 1.22,-4.21" fill="#efab00" fill-rule="evenodd" stroke="none" stroke-width="1" stroke-linecap="butt" stroke-linejoin="miter"/><path d="M370.25,22.06c2.71,0.78 1.5,5 -1.22,4.21c-2.72,-0.79 -1.5,-5 1.22,-4.21" fill="#efab00" fill-rule="evenodd" stroke="none" stroke-width="1" stroke-linecap="butt" stroke-linejoin="miter"/><path d="M406.49,30.25c2.71,0.78 1.5,5 -1.22,4.21c-2.72,-0.79 -1.5,-5 1.22,-4.21" fill="#efab00" fill-rule="evenodd" stroke="none" stroke-width="1" stroke-linecap="butt" stroke-linejoin="miter"/><path d="M391.75,65.66c2.71,0.78 1.49,5 -1.22,4.21c-2.71,-0.79 -1.5,-5 1.22,-4.21" fill="#efab00" fill-rule="evenodd" stroke="none" stroke-width="1" stroke-linecap="butt" stroke-linejoin="miter"/><path d="M366.66,68.75c2.71,0.78 1.5,5 -1.21,4.21c-2.71,-0.79 -1.5,-5 1.21,-4.21" fill="#efab00" fill-rule="evenodd" stroke="none" stroke-width="1" stroke-linecap="butt" stroke-linejoin="miter"/><path d="M386.06,42.65c2.71,0.78 1.5,5 -1.22,4.21c-2.72,-0.79 -1.5,-5 1.22,-4.21" fill="#efab00" fill-rule="evenodd" stroke="none" stroke-width="1" stroke-linecap="butt" stroke-linejoin="miter"/><path d="M409.85,47.75c2.71,0.78 1.5,5 -1.22,4.21c-2.72,-0.79 -1.5,-5 1.22,-4.21" fill="#efab00" fill-rule="evenodd" stroke="none" stroke-width="1" stroke-linecap="butt" stroke-linejoin="miter"/><path d="M340.77,17.89c2.71,0.78 1.49,5 -1.22,4.21c-2.71,-0.79 -1.5,-5 1.22,-4.21" fill="#efab00" fill-rule="evenodd" stroke="none" stroke-width="1" stroke-linecap="butt" stroke-linejoin="miter"/><path d="M347.78,55.25c2.71,0.78 1.5,5 -1.21,4.21c-2.71,-0.79 -1.5,-5 1.21,-4.21" fill="#efab00" fill-rule="evenodd" stroke="none" stroke-width="1" stroke-linecap="butt" stroke-linejoin="miter"/><path d="M424.75,60.75l-1.36,-0.88c0.57892,0.0226 1.14144,0.1986 1.63,0.51c-0.09,0.12 -0.18,0.23 -0.27,0.37" fill="#4ba04b" fill-rule="evenodd" stroke="none" stroke-width="1" stroke-linecap="butt" stroke-linejoin="miter"/><path d="M281.66,45.99c11.78,-2.17 13.7,48.16 -16.47,53c-30.73,4.9 -50.61,-40.59 -50.61,-40.59z" fill="#efab00" fill-rule="evenodd" stroke="none" stroke-width="1" stroke-linecap="butt" stroke-linejoin="miter"/><path d="M196.02,82.15c0,0 58.12,-27.56 68.8,-31.2c14.29,-4.88 20,-1.06 23.21,6.27c5.27,12.11 -4.87,14.41 -6.73,21.9c-1.86,7.49 7.59,17.39 -7,20.67c-12.18,2.75 -10.62,12.21 -16.52,14c-9.16,2.8 -12.84,-5.7 -20.21,-6.89c-7,-1.13 -9.3,5.48 -17.15,3.89c-6.73,-1.36 -9.49,-14.7 -18.25,-16c-14.29,-2 -6.19,-12.69 -6.19,-12.69" fill="#59c059" fill-rule="evenodd" stroke="none" stroke-width="1" stroke-linecap="butt" stroke-linejoin="miter"/><path d="M276.16,71.36c1.41112,0.16732 2.42652,1.43656 2.28,2.85l-0.32,2.83c-0.07777,0.68314 -0.42397,1.30732 -0.96232,1.73499c-0.53835,0.42768 -1.22465,0.62375 -1.90768,0.54501l-7.54,-0.85c-1.41112,-0.16732 -2.42652,-1.43656 -2.28,-2.85l0.32,-2.83c0.16205,-1.4128 1.43675,-2.42808 2.85,-2.27l7.54,0.84" fill="#e8511c" fill-rule="evenodd" stroke="none" stroke-width="1" stroke-linecap="butt" stroke-linejoin="miter"/><path d="M281.25,72.37c-1.54,-0.1 -4,-1.32 -5.76,-1.43c2.33,-12.37 1.09,-23.59 6.54,-25v0c4.3,-0.44 9.61,2.69 7.72,7.26c-1.12,2.71 1.87,5.27 1.72,8.18c-0.2,4.19 -4.15,5.82 -5.5,6.48c-1.35,0.66 -2.45,4.67 -4.75,4.51" fill="#c18500" fill-rule="evenodd" stroke="none" stroke-width="1" stroke-linecap="butt" stroke-linejoin="miter"/><path d="M271,78.83c0.85076,-2.55949 1.5191,-5.17604 2,-7.83l1.28,0.15l1.24,0.14c-0.5022,2.65152 -1.20079,5.26205 -2.09,7.81z" fill="#c6431a" fill-rule="evenodd" stroke="none" stroke-width="1" stroke-linecap="butt" stroke-linejoin="miter"/><path d="M272.96,71c2.2,-12.09 1.09,-23 6.31,-24.53c0.63,-0.11 0.94,-0.17 2,-0.4h0.26c0.18838,-0.03715 0.37867,-0.06386 0.57,-0.08c-5.45,1.41 -4.21,12.63 -6.54,25c-0.44094,-0.04326 -0.88555,0.02912 -1.29,0.21z" fill="#a06b00" fill-rule="evenodd" stroke="none" stroke-width="1" stroke-linecap="butt" stroke-linejoin="miter"/><path d="M273.52,87.19c1.15189,-0.83514 2.76245,-0.58014 3.6,0.57l0.32,0.44c0.83514,1.15189 0.58014,2.76245 -0.57,3.6l-3.17,2.31c-1.15189,0.83514 -2.76245,0.58014 -3.6,-0.57l-0.32,-0.44c-0.83727,-1.14929 -0.58682,-2.75935 0.56,-3.6l3.18,-2.31" fill="#e8511c" fill-rule="evenodd" stroke="none" stroke-width="1" stroke-linecap="butt" stroke-linejoin="miter"/><path d="M240.17,104.4c0.94,-0.19 1.9,-0.42 2.89,-0.68c17.19,-4.55 24.49,-14.52 27.94,-24.89l2.39,0.27c-3.55,10.11 -10.95,19.69 -27.68,24.13c-1.82262,0.49626 -3.67236,0.88691 -5.54,1.17" fill="#4ba04b" fill-rule="evenodd" stroke="none" stroke-width="1" stroke-linecap="butt" stroke-linejoin="miter"/><path d="M206.53,90.38c0.91947,1.0834 0.78981,2.70632 -0.29,3.63l-1.1,0.94c-1.0867,0.92057 -2.71277,0.79102 -3.64,-0.29l-3.48,-4.07c-0.92057,-1.0867 -0.79102,-2.71277 0.29,-3.64l1.1,-0.94c1.0867,-0.92057 2.71277,-0.79102 3.64,0.29l3.48,4.08" fill="#e8511c" fill-rule="evenodd" stroke="none" stroke-width="1" stroke-linecap="butt" stroke-linejoin="miter"/><path d="M239.66,102.35c0.59895,-0.33622 1.30724,-0.41973 1.96796,-0.23202c0.66072,0.1877 1.21932,0.63112 1.55204,1.23202l0.72,1.26c0.33622,0.59895 0.41973,1.30724 0.23202,1.96796c-0.1877,0.66072 -0.63112,1.21932 -1.23202,1.55204l-4.59,2.62c-0.59895,0.33622 -1.30724,0.41973 -1.96796,0.23202c-0.66072,-0.1877 -1.21932,-0.63112 -1.55204,-1.23202l-0.73,-1.25c-0.70943,-1.23751 -0.28471,-2.8157 0.95,-3.53l4.65,-2.67" fill="#e8511c" fill-rule="evenodd" stroke="none" stroke-width="1" stroke-linecap="butt" stroke-linejoin="miter"/><path d="M279.72,46.35c-11.67,2.16 5.53,46.18 -36.66,57.4c-33.61,8.91 -47.38,-18.45 -52,-33.3c-0.58548,-1.85443 -0.34525,-3.87109 0.65949,-5.53608c1.00474,-1.665 2.67695,-2.81753 4.59051,-3.16392z" fill="#ffbf00" fill-rule="evenodd" stroke="none" stroke-width="1" stroke-linecap="butt" stroke-linejoin="miter"/><path d="M257.9,102.33c0.54703,-0.09693 1.0962,0.15902 1.37376,0.64027c0.27756,0.48125 0.22409,1.08477 -0.13376,1.50973l-5.78,6.8c-0.48765,0.48485 -1.26583,0.51409 -1.7885,0.06722c-0.52266,-0.44688 -0.61469,-1.22016 -0.2115,-1.77722l5.78,-6.79c0.20027,-0.2305 0.47087,-0.38865 0.77,-0.45" fill="#ffbf00" fill-rule="evenodd" stroke="none" stroke-width="1" stroke-linecap="butt" stroke-linejoin="miter"/><path d="M212.96,106.43h0.24h8.93c0.72672,0.01093 1.31008,0.6032 1.31,1.33c0.00001,0.34917 -0.13938,0.6839 -0.38722,0.92986c-0.24784,0.24596 -0.58362,0.3828 -0.93278,0.38014h-8.93c-0.6847,0.00057 -1.25616,-0.52249 -1.31604,-1.20457c-0.05988,-0.68207 0.41171,-1.2967 1.08604,-1.41543" fill="#ffbf00" fill-rule="evenodd" stroke="none" stroke-width="1" stroke-linecap="butt" stroke-linejoin="miter"/><path d="M281.72,66.22c0.2975,-0.05196 0.60382,-0.00266 0.87,0.14l7.83,4.3c0.59513,0.37069 0.79661,1.14197 0.45882,1.75637c-0.33779,0.6144 -1.09697,0.85752 -1.72882,0.55363l-7.83,-4.3c-0.48533,-0.27088 -0.74899,-0.81677 -0.65943,-1.36531c0.08956,-0.54855 0.51314,-0.98223 1.05943,-1.08469" fill="#ffbf00" fill-rule="evenodd" stroke="none" stroke-width="1" stroke-linecap="butt" stroke-linejoin="miter"/><path d="M209.25,83.43c0.88324,-0.12125 1.70596,0.47265 1.86897,1.34914c0.16301,0.87649 -0.3912,1.72646 -1.25897,1.93086c-0.88324,0.12125 -1.70596,-0.47265 -1.86897,-1.34914c-0.16301,-0.87649 0.3912,-1.72646 1.25897,-1.93086" fill="#efab00" fill-rule="evenodd" stroke="none" stroke-width="1" stroke-linecap="butt" stroke-linejoin="miter"/><path d="M225.55,77.38c0.90851,-0.16569 1.77931,0.43649 1.945,1.345c0.16569,0.90851 -0.43649,1.77931 -1.345,1.945c-0.90851,0.16569 -1.77931,-0.43649 -1.945,-1.345c-0.16569,-0.90851 0.43649,-1.77931 1.345,-1.945" fill="#efab00" fill-rule="evenodd" stroke="none" stroke-width="1" stroke-linecap="butt" stroke-linejoin="miter"/><path d="M225.08,63.47c0.90851,-0.16845 1.78155,0.43149 1.95,1.34c0.16845,0.90851 -0.43149,1.78155 -1.34,1.95c-0.90851,0.16845 -1.78155,-0.43149 -1.95,-1.34c-0.16845,-0.90851 0.43149,-1.78155 1.34,-1.95" fill="#efab00" fill-rule="evenodd" stroke="none" stroke-width="1" stroke-linecap="butt" stroke-linejoin="miter"/><path d="M252.62,56.69c0.90851,-0.16569 1.77931,0.43649 1.945,1.345c0.16569,0.90851 -0.43649,1.77931 -1.345,1.945c-0.90851,0.16569 -1.77931,-0.43649 -1.945,-1.345c-0.16569,-0.90851 0.43649,-1.77931 1.345,-1.945" fill="#efab00" fill-rule="evenodd" stroke="none" stroke-width="1" stroke-linecap="butt" stroke-linejoin="miter"/><path d="M254.63,85.87c0.88979,-0.13716 1.72814,0.4557 1.89536,1.34033c0.16722,0.88463 -0.3969,1.74258 -1.27536,1.93967c-0.88324,0.12125 -1.70596,-0.47265 -1.86897,-1.34914c-0.16301,-0.87649 0.3912,-1.72646 1.25897,-1.93086" fill="#efab00" fill-rule="evenodd" stroke="none" stroke-width="1" stroke-linecap="butt" stroke-linejoin="miter"/><path d="M238.59,96.53c0.90851,-0.16569 1.77931,0.43649 1.945,1.345c0.16569,0.90851 -0.43649,1.77931 -1.345,1.945c-0.90851,0.16569 -1.77931,-0.43649 -1.945,-1.345c-0.16569,-0.90851 0.43649,-1.77931 1.345,-1.945" fill="#efab00" fill-rule="evenodd" stroke="none" stroke-width="1" stroke-linecap="butt" stroke-linejoin="miter"/><path d="M242.91,72.12c0.88324,-0.12125 1.70596,0.47265 1.86897,1.34914c0.16301,0.87649 -0.3912,1.72646 -1.25897,1.93086c-0.88324,0.12125 -1.70596,-0.47265 -1.86897,-1.34914c-0.16301,-0.87649 0.3912,-1.72646 1.25897,-1.93086" fill="#efab00" fill-rule="evenodd" stroke="none" stroke-width="1" stroke-linecap="butt" stroke-linejoin="miter"/><path d="M260.86,67.46c0.90851,-0.16845 1.78155,0.43149 1.95,1.34c0.16845,0.90851 -0.43149,1.78155 -1.34,1.95c-0.90851,0.16845 -1.78155,-0.43149 -1.95,-1.34c-0.16845,-0.90851 0.43149,-1.78155 1.34,-1.95" fill="#efab00" fill-rule="evenodd" stroke="none" stroke-width="1" stroke-linecap="butt" stroke-linejoin="miter"/><path d="M203.59,70.67c0.90851,-0.16569 1.77931,0.43649 1.945,1.345c0.16569,0.90851 -0.43649,1.77931 -1.345,1.945c-0.90851,0.16569 -1.77931,-0.43649 -1.945,-1.345c-0.16569,-0.90851 0.43649,-1.77931 1.345,-1.945" fill="#efab00" fill-rule="evenodd" stroke="none" stroke-width="1" stroke-linecap="butt" stroke-linejoin="miter"/><path d="M221.11,93.75c0.90851,-0.16569 1.77931,0.43649 1.945,1.345c0.16569,0.90851 -0.43649,1.77931 -1.345,1.945c-0.90851,0.16569 -1.77931,-0.43649 -1.945,-1.345c-0.16569,-0.90851 0.43649,-1.77931 1.345,-1.945" fill="#efab00" fill-rule="evenodd" stroke="none" stroke-width="1" stroke-linecap="butt" stroke-linejoin="miter"/><path d="M275.48,71.29l-1.23,-0.14c0.40445,-0.18088 0.84906,-0.25326 1.29,-0.21c-0.00625,0.11658 -0.00625,0.23342 0,0.35" fill="#4ba04b" fill-rule="evenodd" stroke="none" stroke-width="1" stroke-linecap="butt" stroke-linejoin="miter"/><path d="M416.41,74.12c0,-8.11859 6.58141,-14.7 14.7,-14.7c8.11859,0 14.7,6.58141 14.7,14.7c0,8.11859 -6.58141,14.7 -14.7,14.7c-8.11859,0 -14.7,-6.58141 -14.7,-14.7z" fill="#ffffff" fill-rule="nonzero" stroke="#cacaca" stroke-width="6.83" stroke-linecap="butt" stroke-linejoin="miter"/><path d="M406.55,102.9c0.00005,-6.97988 5.65352,-12.64073 12.6334,-12.64989c6.97988,-0.00916 12.64818,5.63683 12.66656,12.61669c0.01837,6.97986 -5.62013,12.65561 -12.59996,12.6832c-3.36364,0.0133 -6.59408,-1.3136 -8.97724,-3.68738c-2.38316,-2.37378 -3.72279,-5.59896 -3.72276,-8.96262z" fill="#ffffff" fill-rule="nonzero" stroke="#cacaca" stroke-width="6.83" stroke-linecap="butt" stroke-linejoin="miter"/><path d="M401.07,68.28c0,-5.26327 4.26673,-9.53 9.53,-9.53c5.26327,0 9.53,4.26673 9.53,9.53c0,5.26327 -4.26673,9.53 -9.53,9.53c-5.26327,0 -9.53,-4.26673 -9.53,-9.53z" fill="#ffffff" fill-rule="nonzero" stroke="#cacaca" stroke-width="6.83" stroke-linecap="butt" stroke-linejoin="miter"/><path d="M424.31,90.83c0,-7.73199 6.26801,-14 14,-14c7.73199,0 14,6.26801 14,14c0,7.73199 -6.26801,14 -14,14c-7.73199,0 -14,-6.26801 -14,-14z" fill="#ffffff" fill-rule="nonzero" stroke="#cacaca" stroke-width="6.83" stroke-linecap="butt" stroke-linejoin="miter"/><path d="M387.32,89.25c-0.01214,-5.87955 3.52027,-11.18692 8.94879,-13.44534c5.42852,-2.25842 11.68304,-1.02271 15.84482,3.13047c4.16177,4.15318 5.41041,10.40514 3.16321,15.83831c-2.2472,5.43317 -7.54725,8.97655 -13.42682,8.97656c-8.013,0.00002 -14.51346,-6.48702 -14.53,-14.5z" fill="#ffffff" fill-rule="nonzero" stroke="#cacaca" stroke-width="6.83" stroke-linecap="butt" stroke-linejoin="miter"/><path d="M387.32,89.25c-0.01214,-5.87955 3.52027,-11.18692 8.94879,-13.44534c5.42852,-2.25842 11.68304,-1.02271 15.84482,3.13047c4.16177,4.15318 5.41041,10.40514 3.16321,15.83831c-2.2472,5.43317 -7.54725,8.97655 -13.42682,8.97656c-8.013,0.00002 -14.51346,-6.48702 -14.53,-14.5z" fill="#ffffff" fill-rule="nonzero" stroke="none" stroke-width="1" stroke-linecap="butt" stroke-linejoin="miter"/><path d="M416.41,74.12c0,-8.11859 6.58141,-14.7 14.7,-14.7c8.11859,0 14.7,6.58141 14.7,14.7c0,8.11859 -6.58141,14.7 -14.7,14.7c-8.11859,0 -14.7,-6.58141 -14.7,-14.7z" fill="#ffffff" fill-rule="nonzero" stroke="none" stroke-width="1" stroke-linecap="butt" stroke-linejoin="miter"/><path d="M406.55,102.9c0.00005,-6.97988 5.65352,-12.64073 12.6334,-12.64989c6.97988,-0.00916 12.64818,5.63683 12.66656,12.61669c0.01837,6.97986 -5.62013,12.65561 -12.59996,12.6832c-3.36364,0.0133 -6.59408,-1.3136 -8.97724,-3.68738c-2.38316,-2.37378 -3.72279,-5.59896 -3.72276,-8.96262z" fill="#ffffff" fill-rule="nonzero" stroke="none" stroke-width="1" stroke-linecap="butt" stroke-linejoin="miter"/><path d="M424.31,90.83c0,-7.73199 6.26801,-14 14,-14c7.73199,0 14,6.26801 14,14c0,7.73199 -6.26801,14 -14,14c-7.73199,0 -14,-6.26801 -14,-14z" fill="#ffffff" fill-rule="nonzero" stroke="none" stroke-width="1" stroke-linecap="butt" stroke-linejoin="miter"/><path d="M401.07,68.28c0,-5.26327 4.26673,-9.53 9.53,-9.53c5.26327,0 9.53,4.26673 9.53,9.53c0,5.26327 -4.26673,9.53 -9.53,9.53c-5.26327,0 -9.53,-4.26673 -9.53,-9.53z" fill="#ffffff" fill-rule="nonzero" stroke="none" stroke-width="1" stroke-linecap="butt" stroke-linejoin="miter"/><path d="M136.19,162.27l-2.08,4c-0.33,0.63 -0.73,1 -1.26,1c-0.86,0 -1.43,-0.8 -3.11,-0.8c-2.48065,0.25259 -4.36768,2.34153 -4.36768,4.835c0,2.49347 1.88704,4.58241 4.36768,4.835c2.15,0 2.51,-0.8 3.54,-0.8c0.59,0 1,0.43 1.29,1.19l1.36,4c0.1067,0.28623 0.17398,0.58564 0.2,0.89c-0.02336,0.60849 -0.42192,1.13859 -1,1.33c-1.68946,0.78182 -3.52841,1.18782 -5.39,1.19c-8.08,0 -12.68,-5.73 -12.68,-12.68c0.03831,-6.98542 5.69455,-12.63721 12.68,-12.67c2.0169,-0.00577 4.00463,0.48172 5.79,1.42c0.52204,0.212 0.88125,0.69867 0.93,1.26c-0.01279,0.34953 -0.10514,0.69153 -0.27,1z" fill="#ffffff" fill-rule="nonzero" stroke="#000000" stroke-width="6" stroke-linecap="butt" stroke-linejoin="miter"/><path d="M152.11,183.45h-11.12c-0.45335,0.05994 -0.90877,-0.09451 -1.23213,-0.41787c-0.32336,-0.32336 -0.47781,-0.77878 -0.41787,-1.23213v-21c-0.05994,-0.45335 0.09451,-0.90877 0.41787,-1.23213c0.32336,-0.32336 0.77878,-0.47781 1.23213,-0.41787h5c0.45335,-0.05994 0.90877,0.09451 1.23213,0.41787c0.32336,0.32336 0.47781,0.77878 0.41787,1.23213v16.35h4.5c0.456,-0.05984 0.9139,0.0957 1.2391,0.4209c0.3252,0.3252 0.48074,0.78311 0.4209,1.2391v3c0.05942,0.45973 -0.10148,0.92055 -0.43415,1.24338c-0.33267,0.32282 -0.79812,0.46982 -1.25585,0.39662z" fill="#ffffff" fill-rule="nonzero" stroke="#000000" stroke-width="6" stroke-linecap="butt" stroke-linejoin="miter"/><path d="M167.44,183.98c-7.00297,0 -12.68,-5.67703 -12.68,-12.68c0,-7.00297 5.67703,-12.68 12.68,-12.68c7.00297,0 12.68,5.67703 12.68,12.68c-0.00551,7.00069 -5.67931,12.67449 -12.68,12.68zM167.44,166.47c-1.99942,-0.1901 -3.90981,0.86928 -4.80751,2.66593c-0.8977,1.79664 -0.59777,3.96042 0.75478,5.44515c1.35255,1.48473 3.47906,1.98453 5.35139,1.25776c1.87232,-0.72677 3.10473,-2.5304 3.10135,-4.53883c0.09661,-2.54076 -1.86126,-4.68997 -4.4,-4.83z" fill="#ffffff" fill-rule="nonzero" stroke="#000000" stroke-width="6" stroke-linecap="butt" stroke-linejoin="miter"/><path d="M193.25,183.98c-7.45,0 -10.76,-3.94 -10.76,-9.47v-13.7c-0.06064,-0.45533 0.09504,-0.91282 0.42083,-1.23665c0.32579,-0.32382 0.78422,-0.47674 1.23917,-0.41335h5c0.45335,-0.05994 0.90877,0.09451 1.23213,0.41787c0.32336,0.32336 0.47781,0.77878 0.41787,1.23213v11.88c0,2.52 0.67,3.71 2.49,3.71c1.82,0 2.48,-1.19 2.48,-3.71v-11.88c-0.05994,-0.45335 0.09451,-0.90877 0.41787,-1.23213c0.32336,-0.32336 0.77878,-0.47781 1.23213,-0.41787h5c0.45335,-0.05994 0.90877,0.09451 1.23213,0.41787c0.32336,0.32336 0.47781,0.77878 0.41787,1.23213v13.7c-0.12,5.5 -3.43,9.47 -10.82,9.47z" fill="#ffffff" fill-rule="nonzero" stroke="#000000" stroke-width="6" stroke-linecap="butt" stroke-linejoin="miter"/><path d="M215.87,183.45h-6.62c-0.45042,0.05812 -0.90206,-0.09815 -1.22024,-0.42222c-0.31818,-0.32407 -0.46614,-0.7785 -0.39976,-1.22778v-21c-0.05994,-0.45335 0.09451,-0.90877 0.41787,-1.23213c0.32336,-0.32336 0.77878,-0.47781 1.23213,-0.41787h6.62c4.48301,-0.22288 8.72423,2.04197 11.03256,5.89147c2.30833,3.8495 2.30833,8.65756 0,12.50706c-2.30833,3.8495 -6.54955,6.11434 -11.03256,5.89147zM215.87,166.45v9.67c2.48065,-0.25259 4.36768,-2.34153 4.36768,-4.835c0,-2.49347 -1.88704,-4.58241 -4.36768,-4.835z" fill="#ffffff" fill-rule="nonzero" stroke="#000000" stroke-width="6" stroke-linecap="butt" stroke-linejoin="miter"/><path d="M136.19,162.27l-2.08,4c-0.33,0.63 -0.73,1 -1.26,1c-0.86,0 -1.43,-0.8 -3.11,-0.8c-2.48065,0.25259 -4.36768,2.34153 -4.36768,4.835c0,2.49347 1.88704,4.58241 4.36768,4.835c2.15,0 2.51,-0.8 3.54,-0.8c0.59,0 1,0.43 1.29,1.19l1.36,4c0.1067,0.28623 0.17398,0.58564 0.2,0.89c-0.02336,0.60849 -0.42192,1.13859 -1,1.33c-1.68946,0.78182 -3.52841,1.18782 -5.39,1.19c-8.08,0 -12.68,-5.73 -12.68,-12.68c0.03831,-6.98542 5.69455,-12.63721 12.68,-12.67c2.0169,-0.00577 4.00463,0.48172 5.79,1.42c0.52204,0.212 0.88125,0.69867 0.93,1.26c-0.01279,0.34953 -0.10514,0.69153 -0.27,1z" fill="#ffffff" fill-rule="nonzero" stroke="none" stroke-width="1" stroke-linecap="butt" stroke-linejoin="miter"/><path d="M152.11,183.45h-11.12c-0.45335,0.05994 -0.90877,-0.09451 -1.23213,-0.41787c-0.32336,-0.32336 -0.47781,-0.77878 -0.41787,-1.23213v-21c-0.05994,-0.45335 0.09451,-0.90877 0.41787,-1.23213c0.32336,-0.32336 0.77878,-0.47781 1.23213,-0.41787h5c0.45335,-0.05994 0.90877,0.09451 1.23213,0.41787c0.32336,0.32336 0.47781,0.77878 0.41787,1.23213v16.35h4.5c0.456,-0.05984 0.9139,0.0957 1.2391,0.4209c0.3252,0.3252 0.48074,0.78311 0.4209,1.2391v3c0.05942,0.45973 -0.10148,0.92055 -0.43415,1.24338c-0.33267,0.32282 -0.79812,0.46982 -1.25585,0.39662z" fill="#ffffff" fill-rule="nonzero" stroke="none" stroke-width="1" stroke-linecap="butt" stroke-linejoin="miter"/><path d="M167.44,183.98c-7.00297,0 -12.68,-5.67703 -12.68,-12.68c0,-7.00297 5.67703,-12.68 12.68,-12.68c7.00297,0 12.68,5.67703 12.68,12.68c-0.00551,7.00069 -5.67931,12.67449 -12.68,12.68zM167.44,166.47c-1.99942,-0.1901 -3.90981,0.86928 -4.80751,2.66593c-0.8977,1.79664 -0.59777,3.96042 0.75478,5.44515c1.35255,1.48473 3.47906,1.98453 5.35139,1.25776c1.87232,-0.72677 3.10473,-2.5304 3.10135,-4.53883c0.09661,-2.54076 -1.86126,-4.68997 -4.4,-4.83z" fill="#ffffff" fill-rule="nonzero" stroke="none" stroke-width="1" stroke-linecap="butt" stroke-linejoin="miter"/><path d="M193.25,183.98c-7.45,0 -10.76,-3.94 -10.76,-9.47v-13.7c-0.06064,-0.45533 0.09504,-0.91282 0.42083,-1.23665c0.32579,-0.32382 0.78422,-0.47674 1.23917,-0.41335h5c0.45335,-0.05994 0.90877,0.09451 1.23213,0.41787c0.32336,0.32336 0.47781,0.77878 0.41787,1.23213v11.88c0,2.52 0.67,3.71 2.49,3.71c1.82,0 2.48,-1.19 2.48,-3.71v-11.88c-0.05994,-0.45335 0.09451,-0.90877 0.41787,-1.23213c0.32336,-0.32336 0.77878,-0.47781 1.23213,-0.41787h5c0.45335,-0.05994 0.90877,0.09451 1.23213,0.41787c0.32336,0.32336 0.47781,0.77878 0.41787,1.23213v13.7c-0.12,5.5 -3.43,9.47 -10.82,9.47z" fill="#ffffff" fill-rule="nonzero" stroke="none" stroke-width="1" stroke-linecap="butt" stroke-linejoin="miter"/><path d="M215.87,183.45h-6.62c-0.45042,0.05812 -0.90206,-0.09815 -1.22024,-0.42222c-0.31818,-0.32407 -0.46614,-0.7785 -0.39976,-1.22778v-21c-0.05994,-0.45335 0.09451,-0.90877 0.41787,-1.23213c0.32336,-0.32336 0.77878,-0.47781 1.23213,-0.41787h6.62c4.48301,-0.22288 8.72423,2.04197 11.03256,5.89147c2.30833,3.8495 2.30833,8.65756 0,12.50706c-2.30833,3.8495 -6.54955,6.11434 -11.03256,5.89147zM215.87,166.45v9.67c2.48065,-0.25259 4.36768,-2.34153 4.36768,-4.835c0,-2.49347 -1.88704,-4.58241 -4.36768,-4.835z" fill="#ffffff" fill-rule="nonzero" stroke="none" stroke-width="1" stroke-linecap="butt" stroke-linejoin="miter"/></g></g></svg>