<svg version="1.1" xmlns="http://www.w3.org/2000/svg" xmlns:xlink="http://www.w3.org/1999/xlink" width="62.95781" height="57.71891" viewBox="0,0,62.95781,57.71891"><g transform="translate(-198.84223,-179.60233)"><g data-paper-data="{&quot;isPaintingLayer&quot;:true}" stroke-miterlimit="10" stroke-dasharray="" stroke-dashoffset="0" style="mix-blend-mode: normal"><g fill-rule="nonzero" stroke="none" stroke-width="0" stroke-linecap="butt" stroke-linejoin="miter"><path d="M211.94115,221.19655c0.99624,-4.78925 5.6863,-7.86408 10.47554,-6.86784c4.78925,0.99624 7.86408,5.68629 6.86784,10.47554c-0.99624,4.78925 -11.58113,12.18275 -11.58113,12.18275c0,0 -6.7585,-11.0012 -5.76226,-15.79045z" fill="#ff5600"/><path d="M216.06002,219.44884c0.58271,-2.80126 3.32595,-4.59975 6.12721,-4.01704c2.80126,0.58271 4.59975,3.32595 4.01704,6.12721c-0.58271,2.80126 -6.77387,7.12576 -6.77387,7.12576c0,0 -3.95309,-6.43467 -3.37038,-9.23592z" fill="#faff00"/></g><g fill-rule="nonzero" stroke="none" stroke-width="0" stroke-linecap="butt" stroke-linejoin="miter"><path d="M203.92822,220.14468c1.08369,-5.20966 6.18545,-8.5544 11.3951,-7.47071c5.20966,1.08369 8.5544,6.18544 7.47071,11.3951c-1.08369,5.20966 -12.59774,13.25217 -12.59774,13.25217c0,0 -7.35177,-11.9669 -6.26808,-17.17656z" fill="#ff5600"/><path d="M208.40866,218.24355c0.63386,-3.04716 3.61791,-5.00352 6.66507,-4.36966c3.04716,0.63386 5.00352,3.61791 4.36966,6.66507c-0.63386,3.04716 -7.36849,7.75127 -7.36849,7.75127c0,0 -4.3001,-6.99952 -3.66624,-10.04666z" fill="#faff00"/></g><path d="M248.60003,191.75001c0.3,2.2 0.5,10.6 2.9,11.9c2.3,1.2 9.3,-0.8 9.7,4.1c0.4,4.8 -6.1,4.9 -11.5,3.4c-7,-1.9 -10.2,-12.6 -6.2,-19.2c1.5,-2.3 4.8,-2.5 5.1,-0.2z" fill="#66a3ff" fill-rule="evenodd" stroke="#001026" stroke-width="1.2" stroke-linecap="round" stroke-linejoin="round"/><path d="M233.44313,189.04649c-0.78913,-2.03762 -2.50407,-3.80619 -2.50407,-3.80619c0,0 14.66593,1.53341 17.54904,4.03722c1.71435,2.03054 2.7178,4.64033 1.14054,7.86414c-1.36389,2.78771 -3.91243,5.05504 -11.77836,5.4268c0.74807,-1.83182 1.38654,-2.52482 2.10342,-4.00651c5.02388,-0.98088 4.97894,-2.3163 5.55903,-4.05659c0.51357,-1.54071 0.83922,-2.92044 -1.85301,-5.15838z" fill="#b5b5b5" fill-rule="nonzero" stroke="#000000" stroke-width="1.2" stroke-linecap="butt" stroke-linejoin="miter"/><g fill-rule="evenodd"><path d="M226.70003,202.55001c0.6,0.8 3.3,2 -0.2,4.2c-3.6,2.1 -12.7,5 -21.6,-2.9c-9.6,-8.6 -4.5,-20.3 -0.1,-20.7c4.3,-0.4 2.6,6.6 5.7,14.4c4.4,11.3 15.6,4.2 16.2,5z" fill="#66a3ff" stroke="#001026" stroke-width="1.2" stroke-linecap="round" stroke-linejoin="round"/><path d="M207.60003,188.35001c0.5,4.4 1.5,7.4 1.5,7.4c0,0 -1.6,-2 -4,-1.6c-2.9,0.5 -3.8,2.9 -3.9,3.6c-0.7,-1.7 -1.3,-3.8 -1.1,-7.4c0.5,-3.5 2.7,-7.1 5.2,-6.7c2,0.4 1.9,2 2.3,4.7z" fill="#ffffff" stroke="none" stroke-width="1" stroke-linecap="butt" stroke-linejoin="miter"/></g><path d="M214.29352,208.28843c0,0 5.70687,-19.71974 6.98024,-24.11983c0.74181,-2.56328 2.6582,-3.66067 5.23092,-2.95546c1.48619,0.40739 5.8957,1.61608 8.88021,2.43417c3.24658,0.88992 4.44758,3.35125 3.92351,5.16209c-1.33036,4.59699 -7.06141,24.40029 -7.06141,24.40029z" fill="#b5b5b5" fill-rule="nonzero" stroke="#000000" stroke-width="1.2" stroke-linecap="butt" stroke-linejoin="miter"/><path d="M212.85149,213.88862c0,0 1.99295,-2.79559 4.43063,-5.9526c3.72008,0.88337 7.50985,2.00438 12.70403,3.30503c0.55048,4.0058 0.87527,7.35802 0.87527,7.35802z" fill="#b5b5b5" fill-rule="nonzero" stroke="#000000" stroke-width="1.2" stroke-linecap="butt" stroke-linejoin="miter"/><path d="M242.4084,204.88563c0.7311,0.87493 9.23636,3.67178 10.64949,6.59487c1.05199,3.26961 -3.67002,10.43348 -3.67002,10.43348c9.18162,1.07132 7.3958,8.35835 4.16716,9.09037c-2.57868,0.56607 -14.10448,-2.71496 -14.41977,-5.03457c-0.45174,-3.57714 2.4782,-5.54501 3.3476,-9.55177c0.25446,-1.17271 -0.60847,-0.39024 -4.45383,-2.11771c-3.13302,-1.47715 -6.89869,-4.90277 -3.46721,-8.45593c3.01107,-3.03042 5.61087,-3.38807 7.84658,-0.95874z" fill="#66a3ff" fill-rule="evenodd" stroke="#001026" stroke-width="1.2" stroke-linecap="round" stroke-linejoin="round"/><path d="M207.28213,207.48713c0,0 5.70687,-19.71974 6.98024,-24.11983c0.74181,-2.56328 2.6582,-3.66067 5.23092,-2.95546c1.48619,0.40739 5.8957,1.61608 8.88021,2.43417c3.24658,0.88992 4.44758,3.35125 3.92351,5.16209c-1.33036,4.59699 -7.06141,24.40029 -7.06141,24.40029z" fill="#b5b5b5" fill-rule="nonzero" stroke="#000000" stroke-width="1.2" stroke-linecap="butt" stroke-linejoin="miter"/><path d="M205.8401,213.08732c0,0 1.99295,-2.79559 4.43063,-5.9526c3.72008,0.88337 7.50985,2.00438 12.70403,3.30503c0.55048,4.0058 0.87527,7.35802 0.87527,7.35802z" fill="#b5b5b5" fill-rule="nonzero" stroke="#000000" stroke-width="1.2" stroke-linecap="butt" stroke-linejoin="miter"/><g fill-rule="evenodd"><path d="M246.10003,214.75001c0.6,3.3 -4.2,10.8 -4.2,10.8c0,0 6,4.1 2.2,8.3c-2.8,3.1 -5,0.6 -12.3,-6.5c-1.1,-1.1 -1.1,-2.7 -0.2,-3.8c2.1,-2.4 5.1,-6.5 3.1,-8.4c-2.8,-2 -6,-4 -8,-5.2c-8.2,-4.8 -2.2,-10.7 2.3,-19c2.4,-4.5 3.6,-3.3 9.6,-2.1c3.4,0.5 5.4,0.8 7.6,0.7c3.3,-0.1 2.7,4.7 1.8,7.2c0,0 -1.4,3.7 -2.7,5.6c-1.6,2.4 -3.4,4.8 -4.6,5.7c0,0 4.7,3.5 5.4,6.7z" fill="#66a3ff" stroke="#001026" stroke-width="1.2" stroke-linecap="round" stroke-linejoin="round"/><path d="M239.92843,207.95291c0,0 -1.5,-1.2 -3.1,-2.7c-2,-1.8 -4,-3.3 -2,-6.4c1.8,-2.4 3.5,-5.6 8,-2.7c4.3,2.7 2.4,5.2 2.4,5.2c-2.2,4.5 -5.3,6.6 -5.3,6.6z" fill="#ffffff" stroke="none" stroke-width="1" stroke-linecap="butt" stroke-linejoin="miter"/></g><path d="M231.72169,193.06916c-0.29126,2.39899 -3.96229,4.96288 -4.36408,6.00623c-0.07077,0.30821 3.43237,4.5518 5.50676,7.10462c2.9762,3.57103 -1.67327,8.70058 -5.80922,6.64778c-3.82773,-1.98203 -8.88475,-9.6323 -9.48887,-11.52308c-1.47902,-4.29797 6.05067,-11.25456 10.97203,-15.96904" fill="#66a3ff" fill-rule="evenodd" stroke="#001026" stroke-width="1.2" stroke-linecap="round" stroke-linejoin="round"/><path d="M226.63206,187.14339c-1.79076,-2.53843 3.20521,-2.50407 3.20521,-2.50407c0,0 3.24738,0.43162 4.82837,1.83364c2.81614,2.03054 3.71943,4.94082 3.14379,7.66381c-1.36389,2.78771 -1.90918,4.85471 -9.17413,5.52696c-0.65421,-1.33101 -0.41639,-0.62173 -0.60097,-1.6026c3.92209,-3.78544 3.07585,-3.21776 3.65594,-4.95805c0.51357,-1.54071 -0.36273,-4.02223 -1.75285,-4.85789z" fill="#b5b5b5" fill-rule="nonzero" stroke="#000000" stroke-width="1.2" stroke-linecap="butt" stroke-linejoin="miter"/></g></g></svg>