<svg version="1.1" xmlns="http://www.w3.org/2000/svg" xmlns:xlink="http://www.w3.org/1999/xlink" width="81.5" height="59.29033" viewBox="0,0,81.5,59.29033"><g transform="translate(-209.25002,-169.95891)"><g data-paper-data="{&quot;isPaintingLayer&quot;:true}" fill-rule="evenodd" stroke-miterlimit="10" stroke-dasharray="" stroke-dashoffset="0" style="mix-blend-mode: normal"><path d="M248.35001,220.75c-2.3,0.4 -4.7,0.6 -7.5,0.4c-4.7,-0.2 -9.2,-1.9 -9.2,-1.9l-12.1,7.9c-0.4,0.2 -0.9,-0.1 -0.8,-0.5l2.1,-17.9c0.6,0.8 -10.6,-12.8 -3.5,-24.2c7.1,-11.4 22.2,-16.5 41,-12.8c18.8,3.7 23.2,14.5 22,20.2c-1.2,5.7 -8.3,7.8 -8.3,7.8c0,0 -0.1,4.5 -3.3,10c-1.9,3.3 -8.3,8 -8.3,8l-2.6,10.7c-0.1,0.4 -0.6,0.5 -0.9,0.3z" data-paper-data="{&quot;index&quot;:null}" fill="#66a3ff" stroke="#001026" stroke-width="1.2" stroke-linecap="butt" stroke-linejoin="miter"/><path d="M255.25001,194.45c-8.4,-0.6 -19.9,8.5 -26.6,-2.2c-6.7,-10.6 4.8,-25 29,-20c18.6,3.6 23.4,13.9 22.2,19.6c-1.2,5.7 -8.1,7.5 -8.1,7.5c-8.5,1.9 -9.3,-4.4 -16.5,-4.9z" data-paper-data="{&quot;index&quot;:null}" fill="#ffffff" stroke="none" stroke-width="1" stroke-linecap="butt" stroke-linejoin="miter"/><path d="M249.95002,176.35c10.5,-0.6 14.3,6.9 15.2,9.6c0.2,0.5 -0.2,1 -0.7,0.9c-1.5,-0.3 -4.7,-0.6 -10.1,-0.3c-6,0.4 -11.4,2 -13.3,2.7c-0.4,0.1 -0.8,-0.2 -0.8,-0.6c-0.3,-4.9 0.6,-11.3 9.7,-12.3z" data-paper-data="{&quot;index&quot;:null}" fill="#ffffff" stroke="#001026" stroke-width="1.2" stroke-linecap="round" stroke-linejoin="round"/><path d="M278.25002,194.35c0,0 7.2,0.1 11.9,3.9" data-paper-data="{&quot;index&quot;:null}" fill="none" stroke="#001026" stroke-width="1.2" stroke-linecap="round" stroke-linejoin="round"/><path d="M278.65002,188.45c0,0 3.9,-1.9 10.2,-1.4" data-paper-data="{&quot;index&quot;:null}" fill="none" stroke="#001026" stroke-width="1.2" stroke-linecap="round" stroke-linejoin="round"/><path d="M250.25001,195.75c0,-1.6 4.2,-4.1 6,-3.9c1.6,0.1 3.1,2.9 3,4.3c-0.1,0.7 -2.3,0.9 -4.4,0.9c-2,0 -4.7,-0.1 -4.6,-1.3z" data-paper-data="{&quot;index&quot;:null}" fill="#001026" stroke="#001026" stroke-width="1.2" stroke-linecap="round" stroke-linejoin="round"/><path d="M221.95002,192.65c-3.5,3.1 -12.1,5.9 -12.1,5.9" data-paper-data="{&quot;index&quot;:null}" fill="none" stroke="#001026" stroke-width="1.2" stroke-linecap="round" stroke-linejoin="round"/><path d="M210.55002,188.55c0,0 7.4,-1.1 11.7,0.6" data-paper-data="{&quot;index&quot;:null}" fill="none" stroke="#001026" stroke-width="1.2" stroke-linecap="round" stroke-linejoin="round"/><g data-paper-data="{&quot;index&quot;:null}"><path d="M256.25002,213.55c-2.8,-1.8 -2.7,-6.9 0.2,-11.4c3,-4.5 7.6,-6.6 10.4,-4.8c2.8,1.8 2.7,6.9 -0.2,11.4c-2.9,4.5 -7.6,6.7 -10.4,4.8z" fill="#ffffff" stroke="#001026" stroke-width="1.2" stroke-linecap="round" stroke-linejoin="round"/><path d="M266.25002,203.05c0,1.1 -0.8,2 -1.8,2c-1,0 -1.8,-0.9 -1.8,-2c0,-1.1 0.8,-2 1.8,-2c1,0 1.8,0.9 1.8,2" fill="#001026" stroke="none" stroke-width="1" stroke-linecap="butt" stroke-linejoin="miter"/></g><g data-paper-data="{&quot;index&quot;:null}"><path d="M231.05002,210.45c-3.1,-2.2 -2.9,-7.9 0.2,-12.3c3,-4.4 7.4,-5.8 10.7,-3.9c2.7,1.9 2.9,7.3 -0.1,11.7c-3,4.4 -7.7,6.8 -10.8,4.5z" fill="#ffffff" stroke="#001026" stroke-width="1.2" stroke-linecap="round" stroke-linejoin="round"/><path d="M241.25002,200.15c0,1.1 -0.8,1.9 -1.8,2c-1,0 -1.8,-0.9 -1.8,-2c0,-1.1 0.8,-2 1.8,-2c1,0 1.8,0.9 1.8,2" fill="#001026" stroke="none" stroke-width="1" stroke-linecap="butt" stroke-linejoin="miter"/></g></g></g></svg>