<svg version="1.1" xmlns="http://www.w3.org/2000/svg" xmlns:xlink="http://www.w3.org/1999/xlink" width="81.5" height="86.24686" viewBox="0,0,81.5,86.24686"><g transform="translate(-205,-154.25237)"><g data-paper-data="{&quot;isPaintingLayer&quot;:true}" stroke-miterlimit="10" stroke-dasharray="" stroke-dashoffset="0" style="mix-blend-mode: normal"><path d="M244.1,232c-2.3,0.4 -4.7,0.6 -7.5,0.4c-4.7,-0.2 -9.2,-1.9 -9.2,-1.9l-12.1,7.9c-0.4,0.2 -0.9,-0.1 -0.8,-0.5l2.1,-17.9c0.6,0.8 -10.6,-12.8 -3.5,-24.2c7.1,-11.4 23.8958,-44.35958 42.6958,-40.65958c18.8,3.7 30.95223,22.49449 20.3042,48.05958c-2.23963,5.37718 -8.3,7.8 -8.3,7.8c0,0 -0.1,4.5 -3.3,10c-1.9,3.3 -8.3,8 -8.3,8l-2.6,10.7c-0.1,0.4 -0.6,0.5 -0.9,0.3z" data-paper-data="{&quot;index&quot;:null}" fill="#66a3ff" fill-rule="evenodd" stroke="#001026" stroke-width="1.2" stroke-linecap="butt" stroke-linejoin="miter"/><path d="M267.5,210.59999c-8.5,1.9 -9.3,-2.94646 -16.5,-3.44646c-8.4,-0.6 -19.9,7.04646 -26.6,-3.65354c-6.7,-10.6 8.91837,-52.1328 33.11837,-47.1328c18.6,3.6 27.27611,27.95092 18.56614,45.76378c-2.55872,5.23287 -8.58451,8.46903 -8.58451,8.46903z" data-paper-data="{&quot;index&quot;:null}" fill="#ffffff" fill-rule="evenodd" stroke="none" stroke-width="1" stroke-linecap="butt" stroke-linejoin="miter"/><path d="M274,205.6c0,0 7.2,0.1 11.9,3.9" data-paper-data="{&quot;index&quot;:null}" fill="none" fill-rule="evenodd" stroke="#001026" stroke-width="1.2" stroke-linecap="round" stroke-linejoin="round"/><path d="M274.4,199.7c0,0 3.9,-1.9 10.2,-1.4" data-paper-data="{&quot;index&quot;:null}" fill="none" fill-rule="evenodd" stroke="#001026" stroke-width="1.2" stroke-linecap="round" stroke-linejoin="round"/><path d="M245.51549,209.18031c0,-1.6 4.2,-4.1 6,-3.9c1.6,0.1 3.1,2.9 3,4.3c-0.1,0.7 -2.3,0.9 -4.4,0.9c-2,0 -4.7,-0.1 -4.6,-1.3z" data-paper-data="{&quot;index&quot;:null}" fill="#001026" fill-rule="evenodd" stroke="#001026" stroke-width="1.2" stroke-linecap="round" stroke-linejoin="round"/><path d="M217.7,203.9c-3.5,3.1 -12.1,5.9 -12.1,5.9" data-paper-data="{&quot;index&quot;:null}" fill="none" fill-rule="evenodd" stroke="#001026" stroke-width="1.2" stroke-linecap="round" stroke-linejoin="round"/><path d="M206.3,199.8c0,0 7.4,-1.1 11.7,0.6" data-paper-data="{&quot;index&quot;:null}" fill="none" fill-rule="evenodd" stroke="#001026" stroke-width="1.2" stroke-linecap="round" stroke-linejoin="round"/><g data-paper-data="{&quot;index&quot;:null}" fill-rule="evenodd"><path d="M252,224.8c-2.8,-1.8 -2.7,-6.9 0.2,-11.4c3,-4.5 7.6,-6.6 10.4,-4.8c2.8,1.8 2.7,6.9 -0.2,11.4c-2.9,4.5 -7.6,6.7 -10.4,4.8z" fill="#ffffff" stroke="#001026" stroke-width="1.2" stroke-linecap="round" stroke-linejoin="round"/><path d="M262,214.3c0,1.1 -0.8,2 -1.8,2c-1,0 -1.8,-0.9 -1.8,-2c0,-1.1 0.8,-2 1.8,-2c1,0 1.8,0.9 1.8,2" fill="#001026" stroke="none" stroke-width="1" stroke-linecap="butt" stroke-linejoin="miter"/></g><g data-paper-data="{&quot;index&quot;:null}" fill-rule="evenodd"><path d="M226.8,221.7c-3.1,-2.2 -2.9,-7.9 0.2,-12.3c3,-4.4 7.4,-5.8 10.7,-3.9c2.7,1.9 2.9,7.3 -0.1,11.7c-3,4.4 -7.7,6.8 -10.8,4.5z" fill="#ffffff" stroke="#001026" stroke-width="1.2" stroke-linecap="round" stroke-linejoin="round"/><path d="M237,211.4c0,1.1 -0.8,1.9 -1.8,2c-1,0 -1.8,-0.9 -1.8,-2c0,-1.1 0.8,-2 1.8,-2c1,0 1.8,0.9 1.8,2" fill="#001026" stroke="none" stroke-width="1" stroke-linecap="butt" stroke-linejoin="miter"/></g><path d="M267.93133,202.8734c-8.62463,4.29128 -20.23047,-1.50359 -25.92237,-12.9432c-5.6919,-11.43961 -3.31446,-24.19201 5.31017,-28.48329c8.62463,-4.29128 20.23047,1.50359 25.92237,12.9432c5.6919,11.43961 3.31446,24.19201 -5.31017,28.48329z" data-paper-data="{&quot;index&quot;:null}" fill="#ffffff" fill-rule="nonzero" stroke="#000000" stroke-width="1.2" stroke-linecap="butt" stroke-linejoin="miter"/><path d="M264.16618,192.94061c0,4.48665 -2.66127,8.42547 -6.66845,10.65717c-8.99906,-1.07172 -15.49814,-11.03964 -17.6231,-19.78298c2.58665,-2.28026 6.05085,-3.47157 9.99837,-3.47157c7.8939,0 14.29317,5.64003 14.29317,12.59737z" data-paper-data="{&quot;index&quot;:null}" fill="#000000" fill-rule="nonzero" stroke="#001026" stroke-width="1.2" stroke-linecap="butt" stroke-linejoin="miter"/></g></g></svg>