<svg version="1.1" xmlns="http://www.w3.org/2000/svg" xmlns:xlink="http://www.w3.org/1999/xlink" width="24.77882" height="21.79789" viewBox="0,0,24.77882,21.79789"><g transform="translate(-227.61059,-169.10106)"><g data-paper-data="{&quot;isPaintingLayer&quot;:true}" fill="#ffffff" fill-rule="nonzero" stroke-width="4" stroke-linecap="butt" stroke-linejoin="miter" stroke-miterlimit="10" stroke-dasharray="" stroke-dashoffset="0" style="mix-blend-mode: normal"><g stroke="#cacaca"><path d="M229.61059,180.04385c0,-3.29264 2.66922,-5.96186 5.96186,-5.96186c3.29264,0 5.96186,2.66922 5.96186,5.96186c0,3.29264 -2.66922,5.96186 -5.96186,5.96186c-3.29264,0 -5.96186,-2.66922 -5.96186,-5.96186z"/><path d="M235.7478,177.06292c0,-3.29264 2.66922,-5.96186 5.96186,-5.96186c3.29264,0 5.96186,2.66922 5.96186,5.96186c0,3.29264 -2.66922,5.96186 -5.96186,5.96186c-3.29264,0 -5.96186,-2.66922 -5.96186,-5.96186z"/><path d="M233.02989,182.9371c0,-3.29264 2.66922,-5.96186 5.96186,-5.96186c3.29264,0 5.96186,2.66922 5.96186,5.96186c0,3.29264 -2.66922,5.96186 -5.96186,5.96186c-3.29264,0 -5.96186,-2.66922 -5.96186,-5.96186z"/><path d="M241.44663,182.41105c0,-2.46949 2.00191,-4.47139 4.4714,-4.47139c2.46949,0 4.47139,2.00191 4.47139,4.47139c0,2.46949 -2.00191,4.4714 -4.47139,4.4714c-2.46949,0 -4.4714,-2.00191 -4.4714,-4.4714z"/></g><path d="M229.61059,180.04384c0,-3.29264 2.66922,-5.96186 5.96186,-5.96186c3.29264,0 5.96186,2.66922 5.96186,5.96186c0,3.29264 -2.66922,5.96186 -5.96186,5.96186c-3.29264,0 -5.96186,-2.66922 -5.96186,-5.96186z" stroke="none"/><path d="M235.7478,177.06291c0,-3.29264 2.66922,-5.96186 5.96186,-5.96186c3.29264,0 5.96186,2.66922 5.96186,5.96186c0,3.29264 -2.66922,5.96186 -5.96186,5.96186c-3.29264,0 -5.96186,-2.66922 -5.96186,-5.96186z" stroke="none"/><path d="M233.02989,182.9371c0,-3.29264 2.66922,-5.96186 5.96186,-5.96186c3.29264,0 5.96186,2.66922 5.96186,5.96186c0,3.29264 -2.66922,5.96186 -5.96186,5.96186c-3.29264,0 -5.96186,-2.66922 -5.96186,-5.96186z" stroke="none"/><path d="M241.44663,182.41105c0,-2.46948 2.00191,-4.47139 4.47139,-4.47139c2.46948,0 4.47139,2.00191 4.47139,4.47139c0,2.46948 -2.00191,4.47139 -4.47139,4.47139c-2.46948,0 -4.47139,-2.00191 -4.47139,-4.47139z" stroke="none"/></g></g></svg>