<svg version="1.1" xmlns="http://www.w3.org/2000/svg" xmlns:xlink="http://www.w3.org/1999/xlink" width="39.7" height="37.44852" viewBox="0,0,39.7,37.44852"><g transform="translate(-220.1,-161.02575)"><g data-paper-data="{&quot;isPaintingLayer&quot;:true}" fill="#ffffff" fill-rule="nonzero" stroke-width="3" stroke-linecap="butt" stroke-linejoin="miter" stroke-miterlimit="10" stroke-dasharray="" stroke-dashoffset="0" style="mix-blend-mode: normal"><path d="M223.9,186.08018c0,-1.98986 1.6131,-3.60295 3.60295,-3.60295c1.98986,0 3.60295,1.6131 3.60295,3.60295c0,1.98986 -1.6131,3.60295 -3.60295,3.60295c-1.98986,0 -3.60295,-1.6131 -3.60295,-3.60295z" stroke="#cacaca"/><path d="M223.9,186.08018c0,-1.98986 1.6131,-3.60295 3.60295,-3.60295c1.98986,0 3.60295,1.6131 3.60295,3.60295c0,1.98986 -1.6131,3.60295 -3.60295,3.60295c-1.98986,0 -3.60295,-1.6131 -3.60295,-3.60295z" stroke="none"/><path d="M221.6,176.08018c0,-1.16143 0.94152,-2.10295 2.10295,-2.10295c1.16143,0 2.10295,0.94152 2.10295,2.10295c0,1.16143 -0.94152,2.10295 -2.10295,2.10295c-1.16143,0 -2.10295,-0.94152 -2.10295,-2.10295z" stroke="#cacaca"/><path d="M221.6,176.08018c0,-1.16143 0.94152,-2.10295 2.10295,-2.10295c1.16143,0 2.10295,0.94152 2.10295,2.10295c0,1.16143 -0.94152,2.10295 -2.10295,2.10295c-1.16143,0 -2.10295,-0.94152 -2.10295,-2.10295z" stroke="none"/><path d="M242.22364,165.3287c0,-1.54803 1.25492,-2.80295 2.80295,-2.80295c1.54803,0 2.80295,1.25492 2.80295,2.80295c0,1.54803 -1.25492,2.80295 -2.80295,2.80295c-1.54803,0 -2.80295,-1.25492 -2.80295,-2.80295z" stroke="#cacaca"/><path d="M242.22364,165.32869c0,-1.54803 1.25492,-2.80295 2.80295,-2.80295c1.54803,0 2.80295,1.25492 2.80295,2.80295c0,1.54803 -1.25492,2.80295 -2.80295,2.80295c-1.54803,0 -2.80295,-1.25492 -2.80295,-2.80295z" stroke="none"/><path d="M249.02364,170.32869c0,-0.88529 0.71767,-1.60295 1.60295,-1.60295c0.88529,0 1.60295,0.71767 1.60295,1.60295c0,0.88529 -0.71767,1.60295 -1.60295,1.60295c-0.88529,0 -1.60295,-0.71767 -1.60295,-1.60295z" stroke="#cacaca"/><path d="M249.02364,170.32869c0,-0.88529 0.71767,-1.60295 1.60295,-1.60295c0.88529,0 1.60295,0.71767 1.60295,1.60295c0,0.88529 -0.71767,1.60295 -1.60295,1.60295c-0.88529,0 -1.60295,-0.71767 -1.60295,-1.60295z" stroke="none"/><path d="M236.05317,192.17132c0,-2.6526 2.15035,-4.80295 4.80295,-4.80295c2.6526,0 4.80295,2.15035 4.80295,4.80295c0,2.6526 -2.15035,4.80295 -4.80295,4.80295c-2.6526,0 -4.80295,-2.15035 -4.80295,-4.80295z" stroke="#cacaca"/><path d="M236.05317,192.17132c0,-2.6526 2.15035,-4.80295 4.80295,-4.80295c2.6526,0 4.80295,2.15035 4.80295,4.80295c0,2.6526 -2.15035,4.80295 -4.80295,4.80295c-2.6526,0 -4.80295,-2.15035 -4.80295,-4.80295z" stroke="none"/><path d="M247.94557,182.60929c0,-2.8593 2.31792,-5.17721 5.17722,-5.17721c2.8593,0 5.17721,2.31792 5.17721,5.17721c0,2.8593 -2.31792,5.17722 -5.17721,5.17722c-2.8593,0 -5.17722,-2.31792 -5.17722,-5.17722z" stroke="#cacaca"/><path d="M247.94557,182.60929c0,-2.8593 2.31792,-5.17721 5.17721,-5.17721c2.8593,0 5.17721,2.31792 5.17721,5.17721c0,2.8593 -2.31792,5.17721 -5.17721,5.17721c-2.8593,0 -5.17721,-2.31792 -5.17721,-5.17721z" stroke="none"/><path d="M226.94557,167.50929c0,-2.19656 1.78066,-3.97721 3.97722,-3.97721c2.19656,0 3.97721,1.78066 3.97721,3.97721c0,2.19656 -1.78066,3.97722 -3.97721,3.97722c-2.19656,0 -3.97722,-1.78066 -3.97722,-3.97722z" stroke="#cacaca"/><path d="M226.94557,167.50929c0,-2.19655 1.78066,-3.97721 3.97721,-3.97721c2.19655,0 3.97721,1.78066 3.97721,3.97721c0,2.19655 -1.78066,3.97721 -3.97721,3.97721c-2.19655,0 -3.97721,-1.78066 -3.97721,-3.97721z" stroke="none"/></g></g></svg>