<svg version="1.1" xmlns="http://www.w3.org/2000/svg" xmlns:xlink="http://www.w3.org/1999/xlink" width="42" height="37.24219" viewBox="0,0,42,37.24219"><g transform="translate(-218.2,-161.63208)"><g data-paper-data="{&quot;isPaintingLayer&quot;:true}" fill="#ffffff" fill-rule="nonzero" stroke-width="4" stroke-linecap="butt" stroke-linejoin="miter" stroke-miterlimit="10" stroke-dasharray="" stroke-dashoffset="0" style="mix-blend-mode: normal"><path d="M237.22364,172.62871c0,-4.75128 3.85167,-8.60295 8.60295,-8.60295c4.75128,0 8.60295,3.85167 8.60295,8.60295c0,4.75128 -3.85167,8.60295 -8.60295,8.60295c-4.75128,0 -8.60295,-3.85167 -8.60295,-8.60295z" stroke="#cacaca"/><path d="M231.45317,189.47132c0,-4.08854 3.31441,-7.40295 7.40295,-7.40295c4.08854,0 7.40295,3.31441 7.40295,7.40295c0,4.08854 -3.31441,7.40295 -7.40295,7.40295c-4.08854,0 -7.40295,-3.31441 -7.40295,-7.40295z" stroke="#cacaca"/><path d="M228.24557,169.20929c0,-3.08022 2.497,-5.57721 5.57722,-5.57721c3.08022,0 5.57721,2.497 5.57721,5.57721c0,3.08022 -2.497,5.57722 -5.57721,5.57722c-3.08022,0 -5.57722,-2.497 -5.57722,-5.57722z" stroke="#cacaca"/><path d="M241.84557,182.40929c0,-4.51616 3.66106,-8.17721 8.17722,-8.17721c4.51616,0 8.17721,3.66106 8.17721,8.17721c0,4.51616 -3.66106,8.17722 -8.17721,8.17722c-4.51616,0 -8.17722,-3.66106 -8.17722,-8.17722z" stroke="#cacaca"/><path d="M220.2,181.48018c0,-4.69605 3.8069,-8.50295 8.50295,-8.50295c4.69605,0 8.50295,3.8069 8.50295,8.50295c0,4.69605 -3.8069,8.50295 -8.50295,8.50295c-4.69605,0 -8.50295,-3.8069 -8.50295,-8.50295z" stroke="#cacaca"/><path d="M220.2,181.48017c0,-4.69605 3.8069,-8.50295 8.50295,-8.50295c4.69605,0 8.50295,3.8069 8.50295,8.50295c0,4.69605 -3.8069,8.50295 -8.50295,8.50295c-4.69605,0 -8.50295,-3.8069 -8.50295,-8.50295z" stroke="none"/><path d="M237.22364,172.62869c0,-4.75128 3.85167,-8.60295 8.60295,-8.60295c4.75128,0 8.60295,3.85167 8.60295,8.60295c0,4.75128 -3.85167,8.60295 -8.60295,8.60295c-4.75128,0 -8.60295,-3.85167 -8.60295,-8.60295z" stroke="none"/><path d="M231.45317,189.47132c0,-4.08854 3.31441,-7.40295 7.40295,-7.40295c4.08854,0 7.40295,3.31441 7.40295,7.40295c0,4.08854 -3.31441,7.40295 -7.40295,7.40295c-4.08854,0 -7.40295,-3.31441 -7.40295,-7.40295z" stroke="none"/><path d="M241.84557,182.40929c0,-4.51615 3.66106,-8.17721 8.17721,-8.17721c4.51615,0 8.17721,3.66106 8.17721,8.17721c0,4.51615 -3.66106,8.17721 -8.17721,8.17721c-4.51615,0 -8.17721,-3.66106 -8.17721,-8.17721z" stroke="none"/><path d="M228.24557,169.20929c0,-3.08021 2.497,-5.57721 5.57721,-5.57721c3.08021,0 5.57721,2.497 5.57721,5.57721c0,3.08021 -2.497,5.57721 -5.57721,5.57721c-3.08021,0 -5.57721,-2.497 -5.57721,-5.57721z" stroke="none"/></g></g></svg>